<svg id="Layer_1" data-name="Layer 1" xmlns="http://www.w3.org/2000/svg" xmlns:xlink="http://www.w3.org/1999/xlink" viewBox="0 0 98.15 82.7"><defs><style>.cls-1{fill:none;}.cls-2{fill:#936fad;}.cls-3{fill:#fff;}.cls-4{clip-path:url(#clip-path);}.cls-5{isolation:isolate;}.cls-6{fill:#946fb1;}</style><clipPath id="clip-path" transform="translate(0 -3.15)"><rect class="cls-1" x="12.15" width="74" height="29"/></clipPath></defs><title>WTO_But_Read</title><g id="Symbol_readBook_0_Layer0_0_MEMBER_0_FILL" data-name="Symbol readBook 0 Layer0 0 MEMBER 0 FILL"><path class="cls-2" d="M88.3,39.45a.87.87,0,0,0-.65-.25H82.2l-.45-2.4a.86.86,0,0,0-.2-.8.77.77,0,0,0-.55-.45q-6.34-4.69-16-3.2A59.47,59.47,0,0,0,48.9,37.9a59.55,59.55,0,0,0-16-5.55q-9.71-1.5-16,3.2a.93.93,0,0,0-.55.45.86.86,0,0,0-.2.8l-.45,2.4H10.35a1.16,1.16,0,0,0-.6.15l-.05,0a1.14,1.14,0,0,0-.45.65L.05,73.7a1,1,0,0,0,0,.65,1,1,0,0,0,.8.75L48.6,85.85h.6L97.3,75.1a1,1,0,0,0,.8-.75,1,1,0,0,0,0-.65L88.7,40.05a.83.83,0,0,0-.4-.6m-5.7,2h4.15L95.6,73.2,48.9,83.6,2.55,73.2l8.7-31.75H15.2L11.7,60.9a1.55,1.55,0,0,0-.1.35l-1.5,8.3v.3a1,1,0,0,0,.15.7.83.83,0,0,0,.65.35l36.3,5.85a1.74,1.74,0,0,0,1.15.4,3.53,3.53,0,0,0,1.4-.3L87,70.9a.83.83,0,0,0,.65-.35,1,1,0,0,0,.15-.7,1.53,1.53,0,0,0,0-.3l-1.5-8.3a1.63,1.63,0,0,0,0-.35L82.6,41.45M84.15,62.4l1.15,6.5L50.85,74.4q4.45-8.25,14.35-11.2a41.44,41.44,0,0,1,19-.8M65.3,34.55q8.74-1.39,14.25,2.7l4.15,22.8a45.72,45.72,0,0,0-18.2.7Q56,63.26,50.85,70.15V39.45a56.43,56.43,0,0,1,14.45-4.9M47,39.45v30.7q-5.14-6.9-14.65-9.4a45.66,45.66,0,0,0-18.2-.7l4.15-22.8q5.55-4.09,14.3-2.7A55.79,55.79,0,0,1,47,39.45M12.5,68.9l1.2-6.5a41.44,41.44,0,0,1,19,.8q9.85,3,14.3,11.2Z" transform="translate(0 -3.15)"/><path class="cls-3" d="M13.7,62.4l-1.2,6.5L47,74.4q-4.46-8.25-14.3-11.2a41.44,41.44,0,0,0-18.95-.8M47,70.15V39.45a55.79,55.79,0,0,0-14.4-4.9q-8.74-1.39-14.3,2.7L14.1,60.05a45.66,45.66,0,0,1,18.2.7q9.5,2.51,14.65,9.4m32.6-32.9Q74,33.16,65.3,34.55a56.43,56.43,0,0,0-14.45,4.9v30.7q5.15-6.9,14.65-9.4a45.72,45.72,0,0,1,18.2-.7l-4.15-22.8M85.3,68.9l-1.15-6.5a41.44,41.44,0,0,0-19,.8q-9.9,3-14.35,11.2L85.3,68.9m1.45-27.45H82.6L86.15,60.9a1.63,1.63,0,0,1,0,.35l1.5,8.3a1.53,1.53,0,0,1,0,.3,1,1,0,0,1-.15.7.83.83,0,0,1-.65.35l-37.2,5.95a3.53,3.53,0,0,1-1.4.3,1.74,1.74,0,0,1-1.15-.4L10.9,70.9a.83.83,0,0,1-.65-.35,1,1,0,0,1-.15-.7v-.3l1.5-8.3a1.55,1.55,0,0,1,.1-.35l3.5-19.45H11.25L2.55,73.2,48.9,83.6,95.6,73.2Z" transform="translate(0 -3.15)"/></g><g id="Symbol_readBook_0_Layer0_0_MEMBER_1_FILL" data-name="Symbol readBook 0 Layer0 0 MEMBER 1 FILL"><path class="cls-2" d="M44.79,61a1,1,0,0,0-.38-1.53A39.43,39.43,0,0,0,32.1,54.77,29.21,29.21,0,0,0,19,55.41a1,1,0,0,0-.76,1.38,1,1,0,0,0,1.37.8A26.92,26.92,0,0,1,31.8,57a37.18,37.18,0,0,1,11.46,4.47A1,1,0,0,0,44.79,61Z" transform="translate(0 -3.15)"/></g><g id="Symbol_readBook_0_Layer0_0_MEMBER_2_FILL" data-name="Symbol readBook 0 Layer0 0 MEMBER 2 FILL"><path class="cls-2" d="M44.89,54.7c.38-.66.24-1.13-.43-1.41A71.36,71.36,0,0,0,32.38,49a26.44,26.44,0,0,0-12.67,0A1,1,0,0,0,19,50.36a1,1,0,0,0,1.36.81,24.44,24.44,0,0,1,11.78,0,69.21,69.21,0,0,1,11.24,4.05A1.12,1.12,0,0,0,44.89,54.7Z" transform="translate(0 -3.15)"/></g><g id="Symbol_readBook_0_Layer0_0_MEMBER_3_FILL" data-name="Symbol readBook 0 Layer0 0 MEMBER 3 FILL"><path class="cls-2" d="M46,49a.89.89,0,0,0-.42-1.44,47.46,47.46,0,0,0-12.07-4,29.32,29.32,0,0,0-12.55.72,1,1,0,0,0-.76,1.37,1,1,0,0,0,1.36.8,27.45,27.45,0,0,1,11.66-.67A44.43,44.43,0,0,1,44.38,49.5,1.11,1.11,0,0,0,46,49Z" transform="translate(0 -3.15)"/></g><g id="Symbol_readBook_0_Layer0_0_MEMBER_4_FILL" data-name="Symbol readBook 0 Layer0 0 MEMBER 4 FILL"><path class="cls-2" d="M45.92,43.87a.93.93,0,0,0-.39-1.48A47.68,47.68,0,0,0,34,37.9a29.47,29.47,0,0,0-12.3,0c-.71.14-1,.57-.76,1.31a1,1,0,0,0,1.36.86,26.87,26.87,0,0,1,11.4.07,45.31,45.31,0,0,1,10.73,4.22A1,1,0,0,0,45.92,43.87Z" transform="translate(0 -3.15)"/></g><g id="Symbol_readBook_0_Layer0_0_MEMBER_5_FILL" data-name="Symbol readBook 0 Layer0 0 MEMBER 5 FILL"><path class="cls-2" d="M78.55,55.41a29.21,29.21,0,0,0-13.08-.64,39.53,39.53,0,0,0-12.31,4.74,1.14,1.14,0,0,0,1.14,2A37.09,37.09,0,0,1,65.78,57,26.94,26.94,0,0,1,78,57.59a1.13,1.13,0,0,0,.6-2.18Z" transform="translate(0 -3.15)"/></g><g id="Symbol_readBook_0_Layer0_0_MEMBER_6_FILL" data-name="Symbol readBook 0 Layer0 0 MEMBER 6 FILL"><path class="cls-2" d="M78.63,50.36A1,1,0,0,0,77.86,49,26.4,26.4,0,0,0,65.2,49a71.1,71.1,0,0,0-12.09,4.33.88.88,0,0,0-.57.62,1,1,0,0,0,.15.79,1.11,1.11,0,0,0,1.56.54,67.9,67.9,0,0,1,11.24-4.05,24.4,24.4,0,0,1,11.77,0A1,1,0,0,0,78.63,50.36Z" transform="translate(0 -3.15)"/></g><g id="Symbol_readBook_0_Layer0_0_MEMBER_7_FILL" data-name="Symbol readBook 0 Layer0 0 MEMBER 7 FILL"><path class="cls-2" d="M76.06,46.46a1.13,1.13,0,0,0,.6-2.17,29.31,29.31,0,0,0-12.55-.72,47.53,47.53,0,0,0-12.06,4,.89.89,0,0,0-.56.65,1,1,0,0,0,.15.79,1.1,1.1,0,0,0,1.56.52,44.24,44.24,0,0,1,11.2-3.71A27.44,27.44,0,0,1,76.06,46.46Z" transform="translate(0 -3.15)"/></g><g id="Symbol_readBook_0_Layer0_0_MEMBER_8_FILL" data-name="Symbol readBook 0 Layer0 0 MEMBER 8 FILL"><path class="cls-2" d="M76.7,39.19c.2-.74-.06-1.17-.77-1.31a29.42,29.42,0,0,0-12.29,0,47.58,47.58,0,0,0-11.59,4.49.94.94,0,0,0-.4,1.48,1.05,1.05,0,0,0,1.55.47,45.43,45.43,0,0,1,10.72-4.22,26.87,26.87,0,0,1,11.4-.07A1.07,1.07,0,0,0,76.7,39.19Z" transform="translate(0 -3.15)"/></g><g class="cls-4"><g class="cls-5"><g class="cls-5"><path class="cls-6" d="M20.73,5.4A2.06,2.06,0,0,1,21.21,4a1.88,1.88,0,0,1,1.44-.52h4.4a9.43,9.43,0,0,1,2.6.33,4.78,4.78,0,0,1,2,1,4.68,4.68,0,0,1,1.24,1.76,6.72,6.72,0,0,1,.43,2.54,4.51,4.51,0,0,1-.36,1.84,4.36,4.36,0,0,1-1,1.4,5.25,5.25,0,0,1-1.48,1,7.79,7.79,0,0,1-1.8.53l4.25,4.54a1.61,1.61,0,0,1,.5,1.1,1.95,1.95,0,0,1-.53,1.33,1.8,1.8,0,0,1-.6.44,1.71,1.71,0,0,1-.75.16,2.17,2.17,0,0,1-.75-.15,1.68,1.68,0,0,1-.69-.5L24.52,14h0v5.42a1.88,1.88,0,0,1-.54,1.45,2,2,0,0,1-2.68,0,1.87,1.87,0,0,1-.53-1.45Zm3.75,5.93h2.57a2.42,2.42,0,0,0,1.69-.59,2.13,2.13,0,0,0,.63-1.64,2.09,2.09,0,0,0-.63-1.64,2.5,2.5,0,0,0-1.69-.56H24.48Z" transform="translate(0 -3.15)"/><path class="cls-6" d="M34.62,5.62a2.46,2.46,0,0,1,.48-1.56,1.75,1.75,0,0,1,1.47-.61h6.2A1.62,1.62,0,0,1,44.11,4a1.84,1.84,0,0,1,.44,1.18,1.8,1.8,0,0,1-.45,1.19,1.63,1.63,0,0,1-1.33.54h-4.4v3.65h4.11a1.69,1.69,0,0,1,1.37.54,1.8,1.8,0,0,1,.45,1.19,1.76,1.76,0,0,1-.46,1.18,1.71,1.71,0,0,1-1.36.54H38.37v3.8H43a1.62,1.62,0,0,1,1.34.54,1.84,1.84,0,0,1,.43,1.19,1.8,1.8,0,0,1-.45,1.18,1.62,1.62,0,0,1-1.32.54H36.55a1.92,1.92,0,0,1-1.37-.51,1.78,1.78,0,0,1-.56-1.37Z" transform="translate(0 -3.15)"/><path class="cls-6" d="M50.32,5.22a3.54,3.54,0,0,1,1-1.47,2.63,2.63,0,0,1,3.33,0,3.51,3.51,0,0,1,1,1.48l4.89,13.61a2.36,2.36,0,0,1,.17.54,3.65,3.65,0,0,1,0,.38,1.54,1.54,0,0,1-.51,1.19,1.73,1.73,0,0,1-1.21.46A1.78,1.78,0,0,1,57.84,21a2.11,2.11,0,0,1-.61-.94l-.75-2.35h-7l-.75,2.33a2.2,2.2,0,0,1-.61,1A1.69,1.69,0,0,1,47,21.4a1.87,1.87,0,0,1-1.3-.5,1.61,1.61,0,0,1-.56-1.25,1.85,1.85,0,0,1,.07-.51,2,2,0,0,1,.11-.31Zm.28,9.08h4.75L53,7.05h0Z" transform="translate(0 -3.15)"/><path class="cls-6" d="M62,5.37a1.82,1.82,0,0,1,1.92-1.92H68a10.14,10.14,0,0,1,3.74.65A7.5,7.5,0,0,1,74.52,6a8,8,0,0,1,1.72,2.89,11.41,11.41,0,0,1,.58,3.76,9.83,9.83,0,0,1-.61,3.57,7.68,7.68,0,0,1-1.73,2.73,7.8,7.8,0,0,1-2.71,1.74,9.49,9.49,0,0,1-3.5.61H63.92a2.73,2.73,0,0,1-.65-.09,1.85,1.85,0,0,1-.65-.31,1.64,1.64,0,0,1-.48-.59,1.86,1.86,0,0,1-.19-.89ZM65.7,17.8h2.53a5,5,0,0,0,2.08-.41,4.2,4.2,0,0,0,1.48-1.15,4.84,4.84,0,0,0,.86-1.71,8,8,0,0,0,.27-2.11,8.16,8.16,0,0,0-.28-2.21,4.83,4.83,0,0,0-.89-1.75,4.08,4.08,0,0,0-1.54-1.15A5.58,5.58,0,0,0,68,6.9H65.7Z" transform="translate(0 -3.15)"/></g></g></g></svg>