<svg id="Layer_1" data-name="Layer 1" xmlns="http://www.w3.org/2000/svg" xmlns:xlink="http://www.w3.org/1999/xlink" viewBox="0 0 76.45 79.85"><defs><style>.cls-1{fill:none;}.cls-2{fill:#936ead;}.cls-3{clip-path:url(#clip-path);}.cls-4{isolation:isolate;}.cls-5{fill:#936fb1;}</style><clipPath id="clip-path" transform="translate(-5.83 -3.38)"><rect class="cls-1" y="0.22" width="88.55" height="29"/></clipPath></defs><title>WTO_But_Replay</title><path class="cls-2" d="M66.25,49.72A26.11,26.11,0,0,0,61,41.87a24.65,24.65,0,0,0-7.85-5.55,23.76,23.76,0,0,0-9.8-2.1,19.83,19.83,0,0,0-7.5,1.5,22.56,22.56,0,0,0-2.1,1l-.8.45-5.85-6V46.87c0,.74.07,1.15.2,1.25s.53.2,1.3.2H44.15L39,42.92a20.08,20.08,0,0,1,2.3-.5,15.13,15.13,0,0,1,2.05-.25,17,17,0,0,1,6.6,1.3A15.88,15.88,0,0,1,55.2,47a16.05,16.05,0,0,1,3.5,5.25A17,17,0,0,1,60,58.72a18.48,18.48,0,0,1-1.3,7,15.32,15.32,0,0,1-8.85,8.45,18.44,18.44,0,0,1-6.45,1.1,13,13,0,0,1-4.85-1,17.93,17.93,0,0,1-4.6-2.7,19.8,19.8,0,0,1-3.75-3.9,17.45,17.45,0,0,1-2.4-4.65q-.2-.75-.3-1.2a4.72,4.72,0,0,0-.7-1.35c-.77-1.06-2-1.46-3.8-1.2A4.13,4.13,0,0,0,20,61a3.18,3.18,0,0,0-.4,2.35,23.57,23.57,0,0,0,2.8,7.5,25.7,25.7,0,0,0,5.2,6.35,24.49,24.49,0,0,0,7.15,4.4,23.78,23.78,0,0,0,8.65,1.6,27,27,0,0,0,10.25-1.9,22.75,22.75,0,0,0,7.8-5.25,23.28,23.28,0,0,0,5-7.8,26,26,0,0,0,1.75-9.55A22.7,22.7,0,0,0,66.25,49.72Z" transform="translate(-5.83 -3.38)"/><g class="cls-3"><g class="cls-4"><g class="cls-4"><path class="cls-5" d="M5.83,5.62A2,2,0,0,1,6.31,4.2a1.89,1.89,0,0,1,1.44-.53h4.4a9.43,9.43,0,0,1,2.6.33A5,5,0,0,1,16.7,5a4.72,4.72,0,0,1,1.24,1.77,6.66,6.66,0,0,1,.44,2.53A4.48,4.48,0,0,1,18,11.16a4.36,4.36,0,0,1-1,1.4,5.25,5.25,0,0,1-1.48,1,7.33,7.33,0,0,1-1.8.53L18,18.6a1.61,1.61,0,0,1,.5,1.1A1.95,1.95,0,0,1,18,21a1.72,1.72,0,0,1-.59.44,1.79,1.79,0,0,1-.76.16,2.08,2.08,0,0,1-.74-.15,1.55,1.55,0,0,1-.7-.5L9.62,14.25h0v5.42A1.79,1.79,0,0,1,7.7,21.62a1.78,1.78,0,0,1-1.87-1.95Zm3.75,5.93h2.57A2.42,2.42,0,0,0,13.84,11a2.13,2.13,0,0,0,.63-1.64,2.07,2.07,0,0,0-.63-1.63,2.45,2.45,0,0,0-1.69-.57H9.58Z" transform="translate(-5.83 -3.38)"/><path class="cls-5" d="M19.72,5.85a2.46,2.46,0,0,1,.48-1.56,1.75,1.75,0,0,1,1.47-.62h6.21a1.61,1.61,0,0,1,1.33.54,1.87,1.87,0,0,1,.44,1.19,1.82,1.82,0,0,1-.45,1.19,1.61,1.61,0,0,1-1.32.53H23.47v3.65h4.11a1.69,1.69,0,0,1,1.37.54,1.82,1.82,0,0,1,.45,1.19,1.78,1.78,0,0,1-.46,1.19,1.7,1.7,0,0,1-1.36.53H23.47V18H28.1a1.62,1.62,0,0,1,1.34.54,1.87,1.87,0,0,1,.44,1.19,1.83,1.83,0,0,1-.46,1.19,1.61,1.61,0,0,1-1.32.53H21.65A1.92,1.92,0,0,1,20.28,21a1.76,1.76,0,0,1-.56-1.36Z" transform="translate(-5.83 -3.38)"/><path class="cls-5" d="M31.3,5.62a2,2,0,0,1,.5-1.41,1.88,1.88,0,0,1,1.45-.54h4.42a7.5,7.5,0,0,1,2.55.43,5.9,5.9,0,0,1,2,1.21A5.8,5.8,0,0,1,43.59,7.2a6.05,6.05,0,0,1,.49,2.45,5.92,5.92,0,0,1-.5,2.47A5.61,5.61,0,0,1,42.22,14a5.77,5.77,0,0,1-2,1.17,6.94,6.94,0,0,1-2.41.41H35.05v4.1a1.88,1.88,0,1,1-3.75,0Zm3.75,6.65H37.6a2.41,2.41,0,0,0,1.89-.76,2.69,2.69,0,0,0,.68-1.89,2.7,2.7,0,0,0-.68-1.88A2.42,2.42,0,0,0,37.6,7H35.05Z" transform="translate(-5.83 -3.38)"/><path class="cls-5" d="M45.2,5.47A1.89,1.89,0,0,1,45.74,4a2,2,0,0,1,2.67,0A1.89,1.89,0,0,1,49,5.47V18H53.4a1.87,1.87,0,0,1,.82.17,1.57,1.57,0,0,1,.57.42,1.91,1.91,0,0,1,.31.58,2,2,0,0,1,.1.63A1.86,1.86,0,0,1,54.69,21a1.66,1.66,0,0,1-1.29.51H47.15a1.85,1.85,0,0,1-1.44-.55,2.1,2.1,0,0,1-.51-1.5Z" transform="translate(-5.83 -3.38)"/><path class="cls-5" d="M60,5.45A3.64,3.64,0,0,1,61,4a2.66,2.66,0,0,1,3.33,0,3.54,3.54,0,0,1,1,1.49l4.89,13.6a2.28,2.28,0,0,1,.17.55,3.51,3.51,0,0,1,0,.37,1.53,1.53,0,0,1-.51,1.19,1.73,1.73,0,0,1-1.21.46,1.78,1.78,0,0,1-1.21-.36,2.05,2.05,0,0,1-.61-.94L66.12,18h-7l-.75,2.33a2.2,2.2,0,0,1-.61.95,1.7,1.7,0,0,1-1.19.37,1.8,1.8,0,0,1-1.29-.5,1.58,1.58,0,0,1-.55-1.24,1.9,1.9,0,0,1,.06-.52,2.52,2.52,0,0,1,.11-.31Zm.28,9.07H65L62.67,7.27h-.05Z" transform="translate(-5.83 -3.38)"/><path class="cls-5" d="M73.45,13.12,68.72,6.47a1.9,1.9,0,0,1-.34-1.12,1.8,1.8,0,0,1,.5-1.29,1.67,1.67,0,0,1,1.29-.54,1.75,1.75,0,0,1,1.55.75L75.33,9.5l3.59-5.23a1.79,1.79,0,0,1,1.55-.75,1.71,1.71,0,0,1,1.31.54,1.92,1.92,0,0,1,.14,2.41L77.2,13.12V19.8a2,2,0,0,1-.44,1.26,2.12,2.12,0,0,1-2.87,0,2,2,0,0,1-.44-1.26Z" transform="translate(-5.83 -3.38)"/></g></g></g></svg>