<?xml version="1.0" encoding="utf-8"?>
<!-- Generator: Adobe Illustrator 21.0.0, SVG Export Plug-In . SVG Version: 6.00 Build 0)  -->
<svg version="1.1" id="Layer_1" xmlns="http://www.w3.org/2000/svg" xmlns:xlink="http://www.w3.org/1999/xlink" x="0px" y="0px"
	 viewBox="0 0 383 326.6" style="enable-background:new 0 0 383 326.6;" xml:space="preserve">
<style type="text/css">
	.st0{fill:#C39C2E;}
	.st1{fill:#578E80;}
	.st2{fill:#FFD400;}
	.st3{fill:#00AB4E;}
	.st4{fill:#FFFFFF;}
	.st5{fill:#FFFFFF;stroke:#FFFFFF;stroke-width:0.1339;}
</style>
<g>
	<g>
		<g>
			<g>
				<g>
					<path class="st0" d="M118.9,177.3c-2.3,2.7-3.5,6.1-3.3,10.1v50.4c-0.2,3.9,1,6.9,3.3,9.1c0.9,0.9,2.2,1.6,4,2
						c1.9,0.4,3.8,0.5,5.9,0.4c0,0,0-0.1,0-0.3c0-0.2,0.1-0.4,0.4-0.4l-2.3-7.8c-1,0-1.9-0.4-2.6-1.1c-1-1.1-1.4-2.5-1.3-4v-47.5
						c-0.1-1.8,0.3-3.3,1.3-4.4c0.7-1,1.6-1.6,2.6-1.7l3.4-9h-1.5c-1.9,0-3.7,0.4-5.4,1.1C121.4,174.9,119.9,176,118.9,177.3z"/>
					<path class="st1" d="M126.9,182.1c-1,0.1-1.9,0.7-2.6,1.7c-1,1.1-1.4,2.6-1.3,4.4v47.5c-0.1,1.5,0.3,2.9,1.3,4
						c0.7,0.7,1.6,1.1,2.6,1.1V182.1z"/>
				</g>
				<g>
					<path class="st2" d="M261,173.4c-1-0.5-2.3-0.7-4.1-0.6l-126.4,0.3c-3.2-0.2-5.8,1.2-8,4c-2.3,2.7-3.4,6.1-3.3,10.1v50.4
						c-0.2,3.8,1,6.9,3.3,9.2c1.8,1.7,3.8,2.5,6.2,2.5c0.5-0.1,1.1-0.2,1.8-0.3l127.2-28.4c1.5-0.4,2.6-0.9,3.5-1.5
						c0.7-0.5,1.4-1.2,1.7-2.1c0.9-1.8,1.3-3.9,1.3-6.1v-29.5c0-2.5-0.4-4.6-1.3-6C262.6,174.5,261.9,173.8,261,173.4z M256,178.6
						c1.1,0,1.8,0,2.3,0.1c0.5,0.1,1,0.3,1.3,0.5c0.3,0.5,0.5,1.4,0.6,2.9v28.8c-0.1,1.4-0.3,2.4-0.7,2.9c-0.3,0.3-0.7,0.6-1.2,0.9
						c-0.4,0.1-1,0.3-1.9,0.5l-125.1,25.3c-0.3,0-0.5,0-0.7,0.1c-1,0-1.9-0.4-2.7-1c-0.9-1.2-1.3-2.5-1.3-4V188
						c0-1.8,0.4-3.2,1.3-4.3c0.8-1,1.7-1.6,2.7-1.8c0.2-0.1,0.4-0.1,0.7-0.1L256,178.6z"/>
					<path class="st3" d="M258.3,178.7c-0.5-0.1-1.2-0.1-2.3-0.1l-124.7,3.2c-0.3,0-0.5,0-0.7,0.1c-1,0.2-1.9,0.8-2.7,1.8
						c-0.9,1.1-1.3,2.5-1.3,4.3v47.6c0,1.5,0.4,2.8,1.3,4c0.8,0.6,1.7,1,2.7,1c0.2-0.1,0.4-0.1,0.7-0.1l125.1-25.3
						c0.9-0.2,1.5-0.4,1.9-0.5c0.5-0.3,0.9-0.6,1.2-0.9c0.4-0.5,0.6-1.5,0.7-2.9v-28.8c-0.1-1.5-0.3-2.4-0.6-2.9
						C259.3,179,258.8,178.8,258.3,178.7z"/>
				</g>
				<g>
					<path class="st4" d="M252.5,183.1l-3.3,0.1v12l-1.9,0.3l-0.7,0.1l-0.8,0.1v-12.4l-3.6,0.2v30.1l3.6-0.8v-14.1l0.8-0.1l0.7-0.1
						l1.9-0.3v14l3.3-0.6V183.1z"/>
					<path class="st4" d="M225.7,216.7v-32.5l-4.6,0.2l-0.1,33L225.7,216.7z"/>
					<path class="st4" d="M211.6,213.9v-29.1l-5.1,0.1v35.3l11.8-2.2v-5.2L211.6,213.9z"/>
					<path class="st4" d="M182.1,185.8l-5.8,0.2v21.7c-0.4-1.1-3.3-8.2-8.7-21.4l-5.8,0.3v42.2l6.6-1.2l-0.3-25.8l9.8,24l4.2-0.9
						V185.8z"/>
					<path class="st4" d="M154,210.3v-6.6l-9.3,0.9v-11l12.1-0.8v-6.2l-19.6,0.7v46l20.3-3.9v-6.6l-12.8,2.2v-13.5L154,210.3z"/>
					<g>
						<path class="st4" d="M232.3,190.9c0-1.7,0.5-2.6,1.5-2.7c0.9-0.1,1.4,1.1,1.7,3.7l4.1-1.3c-0.7-4.9-2.6-7.2-5.8-6.8
							c-1.8,0.1-3.1,1-4.1,2.5c-1,1.5-1.6,3.5-1.5,5.7c0,3.2,1.4,6.2,4.1,9c1.3,1.4,2,2.6,2.5,3.4c0.4,0.9,0.6,2.2,0.6,3.5
							c0,1.9-0.5,2.9-1.4,3c-1,0-1.6-1.5-2-4.5l-4,1.4c0.4,5.3,2.3,7.8,6,7.3c1.8-0.3,3.2-1.2,4.2-2.6c0.9-1.4,1.4-3.3,1.5-5.6
							c-0.1-3.6-1.6-7-4.6-10.1C233.3,194.7,232.3,192.8,232.3,190.9z"/>
					</g>
					<g>
						<path class="st4" d="M203.6,195.7c-0.2-2.8-0.9-5.3-2.3-7.4c-1.4-2.2-3.7-3.2-6.8-2.9c-3.3,0.3-5.7,2-7,5.3
							c-0.7,1.5-1.2,3.6-1.3,6.1c-0.3,2-0.4,4.9-0.3,8.5c-0.1,3.5,0,6.3,0.3,8.3c0.2,2.5,0.8,4.5,1.6,5.8c1.3,2.3,3.7,3.4,7.2,3.2
							c3.7-0.2,6.2-1.8,7.6-4.8c0.5-1,0.8-2.3,1-3.6c0.1-1,0.1-2.4,0.1-4.3l-0.3-7.5l-8.9,1v5.3l4.1-0.5v3.5
							c-0.3,3.9-1.4,5.9-3.6,5.9c-1.5,0-2.4-0.8-2.7-2.5c-0.5-1.9-0.7-5.5-0.6-10.5c0-5.5,0.1-9.1,0.6-10.9c0.1-0.9,0.5-1.6,1.1-2.1
							c0.5-0.5,1-0.8,1.7-0.8c0.7,0,1.3,0.4,1.9,1.4c0.8,1.1,1.3,2.8,1.3,5L203.6,195.7z"/>
					</g>
				</g>
			</g>
		</g>
	</g>
	<g>
		<path class="st2" d="M299.1,107l-73.4,0c-2.5-16.7-16.8-29.5-34.2-29.5c-17.4,0-31.7,12.8-34.2,29.5l-73.4,0
			c-6.2,0-11.3,5.1-11.3,11.3v40.3c0,6.2,5.1,11.3,11.3,11.3l215.3,0c6.2,0,11.3-5.1,11.3-11.3v-40.3
			C310.4,112.1,305.3,107,299.1,107z"/>
		<path class="st3" d="M298.4,114.1l-213.9,0c-2.7,0-4.9,2.2-4.9,4.9v39c0,2.7,2.2,4.8,4.9,4.8l213.9,0c2.7,0,4.9-2.2,4.9-4.8v-39
			C303.3,116.3,301.1,114.1,298.4,114.1z"/>
		<path class="st4" d="M95.2,155.6c-4.7,0-6.9-3.3-7.3-8.9l5.1-0.9c0.4,4,1.1,5,2.3,5c1.3,0,1.9-0.9,1.9-3c0-3.2-1-4.6-4-8
			c-3.4-3.4-5-6.5-5-10.3c0-4.6,2.3-8.1,6.8-8.1c4.6,0,6.5,3.1,7.1,8l-5,1c-0.4-3.2-0.9-4.2-2.1-4.2c-1.1,0-1.7,0.8-1.7,2.9
			c0,2.3,0.8,3.7,3.4,6.5c3.8,3.9,5.6,7.2,5.6,11.7C102.2,152.2,99.7,155.6,95.2,155.6z"/>
		<path class="st4" d="M105.1,155.1V122h12.4v4.9h-7.1v8.3h5.4v4.9h-5.4v10.1h7.5v4.9H105.1z"/>
		<path class="st4" d="M127.1,155.6c-4.7,0-6.9-3.3-7.3-8.9l5.1-0.9c0.4,4,1.1,5,2.3,5c1.3,0,1.9-0.9,1.9-3c0-3.2-1-4.6-4-8
			c-3.4-3.4-5-6.5-5-10.3c0-4.6,2.3-8.1,6.8-8.1c4.6,0,6.5,3.1,7.1,8l-5,1c-0.4-3.2-0.9-4.2-2.1-4.2c-1.1,0-1.7,0.8-1.7,2.9
			c0,2.3,0.8,3.7,3.4,6.5c3.8,3.9,5.6,7.2,5.6,11.7C134.1,152.2,131.6,155.6,127.1,155.6z"/>
		<path class="st4" d="M144.9,143H142l0.7-6c0.3-2.4,0.6-5.1,0.7-7.7c0.1,2.6,0.5,5.3,0.8,7.7L144.9,143z M151.7,155.1l-5.2-33.1
			h-5.7l-5.2,33.1h5.2l0.9-7.3h3.9l0.9,7.3H151.7z"/>
		<path class="st4" d="M168.1,155.1v-8.7c0-4,0.1-7.9,0.2-11.3c-0.5,2.6-1.5,7.5-2.4,10.9l-2.4,10l-2.3-10
			c-0.8-3.2-1.8-8.4-2.3-10.9c0,3.1,0.2,7.4,0.2,11.3v8.7h-4.7V122h5.2l2.2,10.1c0.7,3,1.5,6.8,1.8,9.5c0.3-2.7,1.1-6.6,1.8-9.5
			l2.2-10h5.2v33.1H168.1z"/>
		<path class="st4" d="M177.1,155.1V122h12.4v4.9h-7.1v8.3h5.4v4.9h-5.4v10.1h7.5v4.9H177.1z"/>
		<path class="st4" d="M207.9,155.6c-4.7,0-6.9-3.3-7.3-8.9l5.1-0.9c0.4,4,1.1,5,2.3,5c1.3,0,1.9-0.9,1.9-3c0-3.2-1-4.6-4-8
			c-3.4-3.4-5-6.5-5-10.3c0-4.6,2.3-8.1,6.8-8.1c4.6,0,6.5,3.1,7.1,8l-5,1c-0.4-3.2-0.9-4.2-2.1-4.2c-1.1,0-1.7,0.8-1.7,2.9
			c0,2.3,0.8,3.7,3.4,6.5c3.8,3.9,5.6,7.2,5.6,11.7C215,152.2,212.4,155.6,207.9,155.6z"/>
		<path class="st4" d="M225.6,126.9v28.2h-5.3v-28.2h-4.4V122h14.2v4.9H225.6z"/>
		<path class="st4" d="M241.7,131.3c0,3.5-0.9,4.8-2.7,4.8H238v-9.7h1.2C241,126.5,241.7,127.7,241.7,131.3z M247.4,155.1l-3.3-16.1
			c1.8-1.5,2.9-4.1,2.9-7.9c0-6.9-3.4-9.1-7.5-9.1h-6.9v33.1h5.2v-14.6h1.3l2.7,14.6H247.4z"/>
		<path class="st4" d="M250.9,155.1V122l12.4,0v4.9h-7.1v8.3h5.4v4.9h-5.4v10.1h7.5v4.9L250.9,155.1z"/>
		<path class="st4" d="M267.1,155.1V122h12.4v4.9h-7.1v8.3h5.4v4.9h-5.4v10.1h7.5v4.9H267.1z"/>
		<path class="st4" d="M291.3,126.9v28.2H286v-28.2h-4.5V122h14.2v4.9H291.3z"/>
		<path class="st3" d="M217.1,105c-2.2-11.4-13.4-20.3-25.6-20.3c-12.2,0-23.5,8.9-25.6,20.3c0,1.7,1.3,2.1,1.8,2.1h47.6
			C215.7,107,217.1,106.7,217.1,105L217.1,105L217.1,105z"/>
		<g>
			<path class="st5" d="M181.2,102.8v-8.4h-1.5v-1.3c1.1-0.1,1.6-0.8,1.8-1.6h1.7v11.2H181.2z"/>
			<path class="st5" d="M187.1,102.8c0.1-3.4,1.2-4.9,3.3-6.4c0.8-0.6,1.1-1,1.1-1.7c0-0.9-0.5-1.3-1.3-1.3c-0.7,0-1.3,0.4-1.8,1
				l-1.2-1.5c0.7-0.9,1.8-1.6,3.1-1.6c1.9,0,3.2,1.1,3.2,3c0,1.6-0.8,2.5-1.9,3.3c-1.5,1.1-2.2,1.9-2.3,3.1h4.2v2H187.1z"/>
			<path class="st5" d="M199.6,102.9c-1.5,0-2.6-0.6-3.5-2.1l1.6-1.1c0.6,0.9,1.2,1.2,1.9,1.2c1,0,1.5-0.6,1.5-1.5
				c0-1.1-0.7-1.6-1.8-1.6h-0.8v-2h0.8c0.9,0,1.5-0.4,1.5-1.2c0-0.7-0.4-1.3-1.3-1.3c-0.6,0-1,0.2-1.6,0.8l-1.4-1.4
				c0.8-0.9,1.6-1.5,3.1-1.5c2,0,3.2,1.2,3.2,3.1c0,1.3-0.6,2-1.6,2.3c1,0.3,1.9,1.1,1.9,2.7C203.2,101.6,201.9,102.9,199.6,102.9z"
				/>
		</g>
	</g>
</g>
<g>
	<path class="st3" d="M268.3,174.7v0.3h-1v2.5h-0.4V175h-1v-0.3H268.3z"/>
	<path class="st3" d="M268.6,174.7h0.6l0.8,2.4l0.8-2.4h0.6v2.9H271v-1.7c0-0.1,0-0.2,0-0.3c0-0.1,0-0.3,0-0.4l-0.8,2.4h-0.4
		l-0.8-2.4v0.1c0,0.1,0,0.2,0,0.3c0,0.1,0,0.2,0,0.3v1.7h-0.4V174.7z"/>
</g>
</svg>
