<?xml version="1.0" encoding="utf-8"?>
<!-- Generator: Adobe Illustrator 24.0.3, SVG Export Plug-In . SVG Version: 6.00 Build 0)  -->
<svg version="1.1" id="Layer_1" xmlns="http://www.w3.org/2000/svg" xmlns:xlink="http://www.w3.org/1999/xlink" x="0px" y="0px"
	 viewBox="0 0 300 300" style="enable-background:new 0 0 300 300;" xml:space="preserve">
<style type="text/css">
	.st0{fill:#991F21;}
	.st1{fill:#E65351;}
	.st2{fill:#638A7F;}
	.st3{fill:#A9C0B9;}
	.st4{fill:#D2DEDA;}
	.st5{fill:#EBEAEA;}
	.st6{fill:#111111;}
	.st7{fill:#FFFFFF;}
</style>
<g>
	<path class="st0" d="M152.21,183.49c5.71-4.94,8.55-10.88,8.53-17.86c0.02-6.98-2.82-12.93-8.53-17.87
		c-5.54-4.78-12.23-7.19-20.06-7.21c-7.84,0.03-14.53,2.43-20.09,7.21c-5.69,4.94-8.53,10.88-8.51,17.87
		c-0.02,6.98,2.82,12.92,8.51,17.86c5.56,4.78,12.24,7.19,20.09,7.21C139.99,190.68,146.68,188.27,152.21,183.49 M155.61,165.63
		c-0.03,5.43-2.25,10.08-6.74,13.93c-4.61,4.01-10.19,6-16.72,5.97c-6.54,0.03-12.12-1.96-16.76-5.97
		c-4.46-3.85-6.69-8.5-6.71-13.93c0.02-5.43,2.25-10.09,6.71-13.94c4.64-4,10.22-6,16.76-5.97c6.53-0.03,12.11,1.97,16.72,5.97
		C153.36,155.54,155.59,160.2,155.61,165.63"/>
	<path class="st1" d="M148.88,179.56c4.48-3.85,6.71-8.5,6.74-13.93c-0.03-5.43-2.26-10.09-6.74-13.94c-4.61-4-10.2-6-16.72-5.97
		c-6.53-0.03-12.12,1.97-16.75,5.97c-4.46,3.85-6.68,8.51-6.71,13.94c0.03,5.43,2.25,10.08,6.71,13.93c4.64,4.01,10.22,6,16.75,5.97
		C138.68,185.56,144.27,183.57,148.88,179.56"/>
	<path class="st2" d="M244.99,177.05c-0.03,0.7,0.18,1.33,0.66,1.87c8.89,9.95,11.58,24.04,8.12,42.24c-0.13,0.7,0,1.35,0.41,1.94
		c0.39,0.6,0.92,0.96,1.61,1.09c0.7,0.13,1.33,0,1.92-0.39c0.59-0.42,0.95-0.96,1.08-1.65c3.84-20.17,0.72-35.74-9.35-46.72
		c-0.49-0.54-1.07-0.83-1.77-0.85c-0.71-0.03-1.33,0.18-1.84,0.67C245.29,175.73,245.02,176.33,244.99,177.05"/>
	<path class="st2" d="M259.2,220.4c-0.02-0.02-0.02-0.02-0.02-0.05c-0.95-0.93-2.1-1.39-3.46-1.39s-2.49,0.47-3.43,1.39
		c-0.02,0.03-0.02,0.03-0.02,0.05c-0.97,0.96-1.46,2.12-1.46,3.49c0.02,1.42,0.51,2.58,1.49,3.54l-0.02-0.03
		c0.95,0.96,2.1,1.45,3.46,1.45c1.36,0,2.51-0.49,3.48-1.45l-0.02,0.03c0.95-0.95,1.43-2.12,1.46-3.54
		C260.64,222.53,260.16,221.36,259.2,220.4 M255.52,223.9c0.03-0.05,0.07-0.11,0.1-0.13c0.02-0.03,0.05-0.05,0.1-0.08
		c0.05,0.02,0.1,0.05,0.13,0.08c0.03,0.02,0.06,0.08,0.08,0.13c-0.08,0.13-0.1,0.18-0.05,0.15l-0.03,0.03l-0.13,0.05
		c-0.08-0.05-0.13-0.08-0.13-0.05v-0.03C255.62,224.08,255.59,224.03,255.52,223.9"/>
	<path class="st2" d="M232.44,84.3c-13.96-15.64-35.89-23.99-65.78-25.03h-0.16c-0.74,0.03-1.56,0.03-2.51,0.03
		c-10.68,0-22.36,0.05-35.04,0.16c-0.49,0-0.95,0.13-1.36,0.41c-16.06,10.57-33.66,22.44-52.82,35.6c-0.49,0.34-0.82,0.78-1,1.34
		c-0.18,0.57-0.18,1.14,0.05,1.71c0.21,0.55,0.57,0.98,1.08,1.29c5.3,3.23,16.39,7.39,33.3,12.43c4.32,4.91,9.65,7.13,15.98,6.64
		c5.3-0.34,11.35-2.74,18.14-7.16c3.36,17.37,1.25,30.3-6.25,38.81c-8.36,8.94-23.06,12.85-44.12,11.69
		c-0.69-0.03-1.3,0.18-1.82,0.64c-0.54,0.44-0.82,1.01-0.87,1.71c-1.67,18.64,0.84,32.8,7.56,42.5c6.71,10,17.67,15.41,32.92,16.16
		c28.59,1.42,53.43,2.33,74.55,2.67c19.08,0.28,31.51-2.35,37.27-7.94c8.66-7.68,12.81-28.11,12.45-61.22
		C253.64,123.88,246.45,99.73,232.44,84.3 M166.52,64.44h0.11c28.1,1.01,48.77,8.79,62.02,23.34c13.16,14.73,19.9,37.74,20.24,69
		c0.33,30.94-3.28,50.07-10.78,57.34l-0.02,0.03c-5.25,4.62-16.5,6.82-33.71,6.57c-21.06-0.34-45.85-1.24-74.36-2.67
		c-13.35-0.67-22.98-5.3-28.95-13.91c-5.72-8.51-7.99-20.71-6.89-36.64c21.72,0.8,36.94-3.7,45.68-13.49
		c9.35-10.05,11.58-25.78,6.69-47.18c-0.13-0.6-0.44-1.06-0.87-1.42c-0.47-0.39-0.98-0.57-1.55-0.6c-0.58-0.02-1.1,0.16-1.59,0.49
		c-7.14,5.14-13.37,7.96-18.7,8.43c-4.87,0.33-8.94-1.48-12.19-5.43c-0.34-0.39-0.77-0.67-1.26-0.83
		c-13.45-4.01-23.18-7.4-29.17-10.19c17.49-12.02,33.68-22.91,48.56-32.68c12.35-0.1,23.75-0.16,34.23-0.16c0.9,0,1.74,0,2.48-0.03
		h0.03V64.44z"/>
	<path class="st3" d="M166.63,64.44h-0.11h-0.05c-0.74,0.03-1.59,0.03-2.48,0.03c-10.48,0-24.3-0.26-36.65-0.15
		C112.46,74.08,98.69,85.28,81.2,97.3c5.99,2.79,15.72,6.18,29.17,10.19c0.49,0.16,0.93,0.44,1.26,0.83
		c3.25,3.95,7.32,5.76,12.19,5.43c5.32-0.47,11.55-3.29,18.69-8.43c0.49-0.34,1.01-0.52,1.59-0.49c0.57,0.03,1.08,0.21,1.55,0.6
		c0.43,0.36,0.74,0.83,0.87,1.42c4.89,21.4,2.67,37.12-6.69,47.18c-8.74,9.8-23.95,14.3-45.67,13.49
		c-1.1,15.93,1.17,28.13,6.89,36.64c5.97,8.61,15.6,13.23,28.95,13.91c28.51,1.42,53.31,2.33,74.36,2.67
		c17.22,0.26,28.46-1.94,33.71-6.57l0.03-0.03c7.5-7.26,11.11-26.39,10.78-57.34c-0.33-31.26-7.07-54.27-20.24-69
		C215.4,73.23,194.73,65.45,166.63,64.44"/>
	<path class="st2" d="M217.58,238.89c0.2-0.44,0.28-0.9,0.26-1.39l-0.64-6.07v-10.6c0-0.7-0.26-1.32-0.75-1.81
		c-0.52-0.52-1.13-0.77-1.81-0.77c-0.69,0-1.31,0.26-1.8,0.77c-0.48,0.44-0.74,1.01-0.76,1.65v0.16v7.22
		c-1.97-1.12-4.72-1.68-8.22-1.68c-3.92,0-6.99,1.01-9.2,3.05c-0.1-0.13-0.21-0.24-0.28-0.31c-2.31-2.69-5.44-4.03-9.38-4.03
		c-0.64,0-1.26,0.08-1.84,0.21v-4.45c0-0.7-0.26-1.32-0.75-1.81c-0.09-0.13-0.2-0.21-0.33-0.28c-0.43-0.33-0.92-0.49-1.49-0.49
		c-0.69,0-1.31,0.26-1.79,0.77c-0.51,0.49-0.76,1.11-0.76,1.81v8.3l-0.67,8.43c-0.05,0.49,0.02,0.96,0.25,1.39
		c0.23,0.44,0.54,0.78,0.95,1.04c0.41,0.23,0.85,0.36,1.33,0.36h35.38c0.49,0,0.92-0.13,1.36-0.39
		C217.04,239.69,217.35,239.33,217.58,238.89 M183.43,230.59c0.49-0.23,1.02-0.36,1.57-0.36c2.3,0,4.15,0.78,5.53,2.3
		c0.44,0.49,0.81,1.06,1.15,1.71c-0.05,0.31-0.08,0.62-0.08,0.93h-8.91l0.33-4.34C183.15,230.75,183.28,230.67,183.43,230.59
		 M197.83,233.46c1.43-1.3,3.44-1.94,6.02-1.94c3.25,0,5.45,0.62,6.66,1.86v0.03c0.28,0.34,0.49,0.77,0.62,1.29
		c0,0,0,0.03,0.02,0.05c0.03,0.13,0.05,0.27,0.08,0.42h-13.76c-0.07-0.33-0.18-0.67-0.28-0.98
		C197.37,233.95,197.57,233.69,197.83,233.46"/>
	<path class="st4" d="M185,230.23c-0.54,0-1.08,0.13-1.57,0.36c-0.15,0.08-0.28,0.15-0.4,0.23l-0.34,4.34h8.92
		c0-0.31,0.02-0.62,0.07-0.93c-0.33-0.65-0.71-1.21-1.15-1.71C189.14,231,187.3,230.23,185,230.23"/>
	<path class="st4" d="M197.83,233.46c-0.26,0.23-0.46,0.49-0.64,0.72c0.1,0.31,0.21,0.65,0.28,0.98h13.76
		c-0.03-0.15-0.05-0.28-0.08-0.42c-0.02-0.02-0.02-0.05-0.02-0.05c-0.12-0.52-0.34-0.96-0.62-1.29v-0.03
		c-1.2-1.24-3.41-1.86-6.66-1.86C201.27,231.52,199.27,232.17,197.83,233.46"/>
	<path class="st3" d="M194.37,229.09c0.07,0.08,0.18,0.18,0.28,0.31c2.21-2.04,5.28-3.05,9.2-3.05c3.5,0,6.25,0.57,8.22,1.68v-7.22
		v-0.16l-30-1.93c0.13,0.07,0.23,0.15,0.33,0.28c0.49,0.49,0.75,1.11,0.75,1.81v4.45c0.59-0.13,1.21-0.21,1.84-0.21
		C188.94,225.06,192.06,226.4,194.37,229.09"/>
	<path class="st2" d="M126.21,217.45v-0.12c0-0.7-0.25-1.32-0.74-1.81c-0.52-0.51-1.13-0.77-1.83-0.77c-0.69,0-1.3,0.26-1.79,0.77
		c-0.5,0.49-0.76,1.11-0.76,1.81v12.3l-0.67,8.42c-0.05,0.49,0.02,0.96,0.26,1.4c0.23,0.44,0.54,0.78,0.95,1.04
		c0.41,0.23,0.84,0.36,1.33,0.36h35.37c0.49,0,0.92-0.13,1.36-0.39c0.41-0.26,0.71-0.62,0.95-1.06c0.21-0.44,0.28-0.9,0.25-1.4
		l-0.64-6.08v-13.06c0-0.69-0.26-1.31-0.74-1.81c-0.51-0.51-1.13-0.78-1.82-0.78s-1.31,0.26-1.8,0.78
		c-0.49,0.47-0.74,1.03-0.76,1.71v0.1v9.67c-1.98-1.11-4.72-1.68-8.23-1.68c-3.92,0-6.99,1.01-9.19,3.05
		c-0.11-0.13-0.21-0.23-0.28-0.31c-2.31-2.68-5.44-4.03-9.38-4.03c-0.64,0-1.26,0.08-1.84,0.21
		C126.21,225.77,126.21,217.45,126.21,217.45z M126.08,231.34c0.13-0.08,0.26-0.16,0.41-0.23c0.49-0.24,1.03-0.37,1.56-0.37
		c2.3,0,4.15,0.78,5.53,2.3c0.44,0.49,0.82,1.06,1.16,1.7c-0.05,0.31-0.08,0.63-0.08,0.93h-8.91L126.08,231.34z M140.53,235.68
		c-0.1-0.34-0.2-0.67-0.28-0.98c0.18-0.24,0.39-0.49,0.64-0.73c1.43-1.3,3.43-1.94,6.02-1.94c3.26,0,5.46,0.62,6.67,1.86v0.03
		c0.28,0.33,0.49,0.77,0.61,1.29c0,0.03,0,0.03,0.02,0.05c0.02,0.13,0.05,0.26,0.08,0.42H140.53z"/>
	<path class="st4" d="M126.49,231.11c-0.15,0.07-0.28,0.15-0.41,0.23l-0.33,4.34h8.91c0-0.31,0.03-0.62,0.08-0.93
		c-0.33-0.65-0.72-1.21-1.16-1.7c-1.38-1.52-3.23-2.3-5.53-2.3C127.52,230.75,126.97,230.87,126.49,231.11"/>
	<path class="st4" d="M140.24,234.7c0.08,0.31,0.18,0.65,0.28,0.98h13.75c-0.02-0.15-0.05-0.28-0.08-0.41
		c-0.02-0.03-0.02-0.03-0.02-0.06c-0.13-0.51-0.33-0.96-0.61-1.29v-0.02c-1.2-1.24-3.4-1.86-6.67-1.86c-2.58,0-4.57,0.65-6.01,1.94
		C140.63,234.21,140.42,234.47,140.24,234.7"/>
	<path class="st3" d="M126.21,225.78c0.59-0.13,1.21-0.21,1.84-0.21c3.95,0,7.07,1.35,9.38,4.04c0.07,0.08,0.18,0.18,0.28,0.31
		c2.2-2.04,5.27-3.05,9.19-3.05c3.51,0,6.25,0.57,8.23,1.68v-9.67v-0.1l-28.92-1.32C126.21,217.46,126.21,225.78,126.21,225.78z"/>
	<path class="st2" d="M129.52,64.75c0.28,0.03,0.58,0.05,0.87,0.08c0.69,0.05,1.33-0.15,1.87-0.62c0.54-0.46,0.82-1.06,0.9-1.76
		c0.05-0.7-0.16-1.32-0.61-1.86c-0.46-0.55-1.05-0.85-1.75-0.9c-41.5-3.44-69.26,9.54-83.33,38.93
		C33.59,127.24,29.9,173,36.44,235.89c0.05,0.65,0.33,1.19,0.82,1.63c0.49,0.44,1.08,0.68,1.71,0.68h28.74
		c0.48,0,0.94-0.13,1.38-0.42c0.44-0.28,0.75-0.64,0.95-1.11s0.28-0.96,0.2-1.45c-3.05-20.65-3.45-43.43-1.2-68.3
		c2.16-24.06,7.78-39.5,16.91-46.27c8.99-6.51,16.91-9.23,23.72-8.12c0.69,0.1,1.34-0.05,1.92-0.43c0.57-0.42,0.93-0.99,1.05-1.68
		c0.12-0.7-0.02-1.35-0.44-1.91c-0.28-0.41-0.64-0.72-1.07-0.91c-0.18-0.08-0.39-0.13-0.56-0.15c-7.96-1.53-17.16,1.47-27.59,8.99
		c-10.35,7.22-16.7,23.89-19.03,50.03c-2.18,24.12-1.92,46.33,0.82,66.57H41.3c-6.08-60.39-2.49-104.45,10.78-132.13
		C65.27,73.82,91.1,61.78,129.52,64.75"/>
	<path class="st3" d="M112.51,106.19C112.69,106.21,112.33,106.11,112.51,106.19l22.55-41.77c-39.38-4.44-70.73,8.49-82.85,34.97
		c-14.64,32-17.22,72.83-11.02,134.14h23.96c-2.8-20.55-3.06-43.1-0.84-67.59c2.38-26.53,11.06-44.38,21.73-51.56
		c9.62-6.47,17.46-6.77,25.88-8.36"/>
	<path class="st5" d="M146.96,68.45c-4.51,0-8.35,1.6-11.55,4.81c-3.18,3.23-4.77,7.11-4.77,11.66s1.59,8.43,4.77,11.66
		c3.2,3.21,7.04,4.81,11.55,4.81c4.51,0,8.35-1.61,11.55-4.81c3.18-3.23,4.77-7.11,4.77-11.66s-1.59-8.43-4.77-11.66
		C155.31,70.05,151.47,68.45,146.96,68.45"/>
	<path class="st6" d="M146.96,76.67c-2.25,0-4.17,0.8-5.76,2.43c-1.62,1.6-2.41,3.54-2.41,5.82s0.8,4.21,2.41,5.82
		c1.59,1.63,3.51,2.43,5.76,2.43c2.26,0,4.17-0.8,5.77-2.43c1.61-1.6,2.41-3.54,2.41-5.82s-0.8-4.22-2.41-5.82
		C151.13,77.47,149.21,76.67,146.96,76.67"/>
	<path class="st2" d="M49.25,178.78c0-0.7-0.26-1.32-0.75-1.8c-0.51-0.52-1.12-0.78-1.82-0.78H36.44c-0.68,0-1.31,0.26-1.79,0.78
		c-0.51,0.48-0.76,1.1-0.76,1.8s0.25,1.32,0.76,1.84c0.49,0.49,1.11,0.75,1.79,0.75h10.25c0.7,0,1.31-0.26,1.82-0.75
		C49,180.11,49.25,179.49,49.25,178.78"/>
	<path class="st2" d="M54.02,218.62c0-0.7-0.26-1.32-0.75-1.81c-0.51-0.52-1.12-0.78-1.82-0.78H37.63c-0.69,0-1.31,0.26-1.79,0.78
		c-0.51,0.49-0.76,1.11-0.76,1.81s0.25,1.32,0.76,1.83c0.49,0.49,1.11,0.75,1.79,0.75h13.84c0.7,0,1.31-0.26,1.82-0.75
		C53.77,219.94,54.02,219.32,54.02,218.62"/>
	<path class="st2" d="M51.81,197.94c0-0.7-0.25-1.32-0.74-1.81c-0.51-0.52-1.12-0.78-1.82-0.78h-12.3c-0.69,0-1.3,0.26-1.79,0.78
		c-0.51,0.49-0.77,1.11-0.77,1.81s0.25,1.32,0.77,1.84c0.49,0.49,1.1,0.75,1.79,0.75h12.3c0.7,0,1.31-0.25,1.82-0.75
		C51.56,199.26,51.81,198.64,51.81,197.94"/>
	<path class="st2" d="M202.73,71.11c0.28,0.05,0.56,0.08,0.84,0.05c22.16-2.28,38.3,0.91,48.37,9.57
		c9.75,8.73,13.63,22.93,11.55,42.55c-2.05,19.37-9.36,31.18-21.93,35.39c-13.17,4.08-31.87,0.36-56.12-11.19
		c-0.19-0.08-0.34-0.16-0.52-0.18c-0.49-0.13-0.95-0.1-1.44,0.08c-0.69,0.23-1.17,0.7-1.46,1.35c-0.3,0.64-0.33,1.29-0.1,1.96
		c0.23,0.65,0.69,1.14,1.34,1.48c25.82,12.3,45.77,16.13,59.84,11.45c14.65-4.52,23.15-17.78,25.49-39.78
		c2.28-21.74-2.15-37.41-13.29-47c-10.84-9.67-28.23-13.26-52.24-10.8c-0.69,0.07-1.27,0.39-1.71,0.93
		c-0.46,0.54-0.64,1.19-0.56,1.88c0.08,0.7,0.38,1.29,0.92,1.76C202.03,70.85,202.36,71.03,202.73,71.11"/>
	<path class="st3" d="M203.57,71.16c-0.28,0.03-0.56,0-0.84-0.05l-17.81,76.19c0.17,0.03,0.33,0.1,0.52,0.18
		c24.25,11.55,42.95,15.28,56.12,11.19c12.57-4.21,19.87-16.02,21.93-35.39c2.08-19.62-1.8-33.81-11.55-42.55
		C241.86,72.06,225.73,68.88,203.57,71.16"/>
	<path class="st6" d="M144.29,103.32c-0.54-0.08-1.08,0-1.56,0.28c-18.16,9.46-34.86,5.23-50.08-12.74
		c-0.39-0.44-0.84-0.7-1.38-0.83c-0.54-0.13-1.08-0.08-1.58,0.15c-0.54,0.23-0.93,0.6-1.21,1.11c-0.28,0.49-0.38,1.04-0.31,1.6
		c2.15,16.21,8.27,27.3,18.34,33.22c9.81,6.02,23.49,6.93,41.04,2.74c0.64-0.18,1.15-0.54,1.54-1.08c0.39-0.57,0.52-1.19,0.41-1.84
		l-3.05-20.45c-0.08-0.55-0.33-1.04-0.72-1.42C145.31,103.66,144.83,103.4,144.29,103.32 M141.91,109.76l2.16,14.58
		c-14.81,3.21-26.47,2.33-34.94-2.66c-6.84-4.21-11.55-11.17-14.18-20.92C109.43,114.41,125.08,117.41,141.91,109.76"/>
	<path class="st7" d="M144.07,124.34l-2.16-14.58c-16.83,7.65-32.48,4.65-46.97-8.99c2.63,9.74,7.34,16.7,14.18,20.92
		C117.6,126.67,129.26,127.54,144.07,124.34"/>
</g>
</svg>
