<?xml version="1.0" encoding="utf-8"?>
<!-- Generator: Adobe Illustrator 24.0.3, SVG Export Plug-In . SVG Version: 6.00 Build 0)  -->
<svg version="1.1" id="Layer_1" xmlns="http://www.w3.org/2000/svg" xmlns:xlink="http://www.w3.org/1999/xlink" x="0px" y="0px"
	 viewBox="0 0 300 300" style="enable-background:new 0 0 300 300;" xml:space="preserve">
<style type="text/css">
	.st0{clip-path:url(#SVGID_2_);fill:#2A6FB6;}
	.st1{clip-path:url(#SVGID_2_);fill:#A6D0EA;}
	.st2{clip-path:url(#SVGID_2_);fill:#D2E6F3;}
	
		.st3{clip-path:url(#SVGID_2_);fill:none;stroke:#854D9D;stroke-width:0.04;stroke-linecap:round;stroke-linejoin:round;stroke-miterlimit:10;}
</style>
<g>
	<defs>
		<rect id="SVGID_1_" x="-250.87" y="-414.52" width="799.73" height="1131.04"/>
	</defs>
	<clipPath id="SVGID_2_">
		<use xlink:href="#SVGID_1_"  style="overflow:visible;"/>
	</clipPath>
	<path class="st0" d="M247.52,86.16c-0.25-0.23-0.54-0.39-0.87-0.5C180.4,65.46,112.63,69.48,43.38,97.7
		c-0.39,0.14-0.7,0.39-0.93,0.74c-0.25,0.33-0.37,0.7-0.37,1.13c-0.68,53.4,5.86,95.94,19.59,127.63c0.14,0.32,0.35,0.58,0.64,0.8
		c0.27,0.21,0.58,0.35,0.93,0.42c59.82,10.15,122.35,5.28,187.57-14.63c0.35-0.11,0.66-0.32,0.93-0.58c0.25-0.27,0.41-0.6,0.5-0.95
		c9.66-44.3,8.26-86.06-4.19-125.26C247.94,86.67,247.75,86.38,247.52,86.16 M244.41,89.27c11.83,37.9,13.17,78.21,4.04,120.92
		c-63.76,19.3-124.9,24.07-183.42,14.34C51.92,193.64,45.65,152.46,46.18,101C113.71,73.77,179.78,69.85,244.41,89.27"/>
	<path class="st1" d="M248.45,210.19c9.12-42.71,7.79-83.02-4.04-120.92C179.78,69.85,113.71,73.77,46.19,101
		c-0.54,51.46,5.74,92.64,18.85,123.54C123.55,234.26,184.69,229.5,248.45,210.19"/>
	<path class="st0" d="M58.49,99.99c0.23-0.52,0.25-1.05,0.06-1.59l-0.19-0.47c-0.02-0.06-0.04-0.11-0.06-0.14
		c-0.27-0.55-0.6-1.22-1.02-1.94c-1.15-1.96-2.56-3.84-4.19-5.64v-0.02C48.3,85,43.23,82.44,37.93,82.5h-0.02
		c-4.44-0.02-8.17,1.26-11.21,3.8h0.02c-3.04,2.46-4.54,5.24-4.48,8.36c-0.21,4.52,3.41,8.63,10.82,12.31
		c1.96,0.95,4.4,1.98,7.31,3.07h0.02c2.43,0.89,3.76,1.4,3.99,1.5c0.52,0.27,1.03,0.31,1.59,0.14c0.53-0.18,0.95-0.51,1.21-1.01
		c0.27-0.52,0.31-1.03,0.14-1.57c-0.1-0.33-0.27-0.6-0.48-0.83c-0.14-0.14-0.33-0.29-0.53-0.39c-0.25-0.14-1.75-0.72-4.5-1.73v0.01
		c-2.79-1.03-5.1-2-6.93-2.91h0.02c-5.47-2.72-8.32-5.59-8.52-8.61c0.06-1.9,1.03-3.61,2.95-5.16l0.02-0.02
		c2.31-1.91,5.16-2.87,8.57-2.85c4.21,0.06,8.26,2.16,12.16,6.36c1.42,1.57,2.64,3.22,3.65,4.93c0.35,0.6,0.62,1.11,0.83,1.57
		l0.12,0.31c0.11,0.27,0.25,0.52,0.44,0.72c0.18,0.18,0.39,0.33,0.64,0.45c0.52,0.23,1.03,0.25,1.57,0.06
		C57.85,100.86,58.24,100.51,58.49,99.99"/>
	<path class="st1" d="M37.91,86.63c-3.4-0.02-6.26,0.94-8.57,2.85l-0.02,0.02c-1.92,1.54-2.89,3.26-2.95,5.16
		c0.2,3.01,3.05,5.88,8.52,8.61h-0.02c1.84,0.91,4.15,1.88,6.93,2.91v-0.01c2.74,1.01,4.25,1.58,4.5,1.73
		c0.21,0.1,0.39,0.25,0.54,0.4l8.26-7.76c-0.19-0.21-0.33-0.46-0.44-0.73l-0.13-0.31c-0.21-0.46-0.48-0.97-0.83-1.57
		c-1.01-1.71-2.23-3.36-3.65-4.93C46.17,88.8,42.12,86.7,37.91,86.63"/>
	<path class="st0" d="M42.22,225.3H42.2c-1.44-2-1.94-3.92-1.5-5.76c0.97-2.88,4.43-4.91,10.44-6.13h-0.02
		c2.03-0.39,4.5-0.72,7.45-0.99c2.99-0.27,4.64-0.46,4.95-0.56c0.19-0.06,0.35-0.13,0.49-0.21c0.31-0.19,0.54-0.46,0.72-0.78
		c0.27-0.52,0.33-1.04,0.16-1.57c-0.16-0.56-0.49-0.97-0.99-1.24c-0.51-0.27-1.03-0.33-1.57-0.16c-0.26,0.06-1.63,0.18-4.12,0.41
		H58.2c-3.1,0.28-5.72,0.64-7.84,1.05h-0.04c-8.12,1.65-12.63,4.69-13.6,9.1c-0.87,2.97-0.15,6.05,2.15,9.22v0.02
		c2.29,3.22,5.55,5.4,9.82,6.57h0.02c5.1,1.42,10.65,0.25,16.64-3.51l0.02-0.02c2.05-1.3,3.86-2.76,5.47-4.35l-0.02,0.02
		c0.59-0.6,1.09-1.12,1.51-1.57c0.06-0.07,0.1-0.15,0.16-0.23c0-0.02,0-0.02,0.02-0.02c0.04-0.07,0.1-0.15,0.17-0.23
		c0.35-0.46,0.51-0.97,0.46-1.53c-0.07-0.55-0.33-1.04-0.76-1.39c-0.46-0.35-0.97-0.49-1.53-0.43c-0.31,0.03-0.6,0.12-0.85,0.29
		c-0.21,0.1-0.39,0.27-0.54,0.48c-0.12,0.14-0.21,0.26-0.27,0.35c-0.02,0.01-0.06,0.06-0.08,0.1c-0.31,0.35-0.7,0.76-1.18,1.21v0.02
		c-1.4,1.39-2.99,2.67-4.77,3.8h-0.02c-4.81,3.04-9.26,4.03-13.37,3.01C46.5,229.41,43.98,227.74,42.22,225.3"/>
	<path class="st1" d="M42.2,225.3h0.02c1.75,2.44,4.27,4.11,7.54,5c4.11,1.02,8.57,0.02,13.37-3.01h0.02
		c1.78-1.13,3.37-2.41,4.77-3.8v-0.02c0.48-0.45,0.87-0.86,1.18-1.21c0.02-0.04,0.06-0.08,0.08-0.1c0.06-0.09,0.14-0.21,0.26-0.35
		c0.15-0.21,0.33-0.38,0.54-0.48l-5.96-9.66c-0.15,0.08-0.31,0.14-0.5,0.21c-0.31,0.1-1.96,0.29-4.95,0.56
		c-2.95,0.27-5.43,0.6-7.45,0.99h0.02c-6.01,1.22-9.47,3.26-10.44,6.13C40.26,221.38,40.76,223.3,42.2,225.3"/>
	<path class="st0" d="M260.8,82.46c-0.06,4.21-2.17,8.26-6.34,12.16h-0.02c-1.57,1.43-3.2,2.64-4.91,3.65
		c-0.59,0.35-1.11,0.62-1.57,0.82l-0.27,0.1c-0.31,0.1-0.56,0.25-0.76,0.45c-0.19,0.17-0.33,0.37-0.43,0.6
		c-0.27,0.5-0.31,1.01-0.12,1.57c0.18,0.54,0.54,0.93,1.05,1.19c0.5,0.25,1.01,0.29,1.57,0.1l0.47-0.18
		c0.06-0.02,0.14-0.07,0.2-0.09c0.56-0.26,1.22-0.6,1.94-1.01c1.96-1.16,3.84-2.56,5.63-4.19c5.18-4.81,7.74-9.87,7.68-15.17v-0.02
		c0.02-4.43-1.26-8.2-3.8-11.23l0.02,0.01c-2.48-3.03-5.26-4.52-8.38-4.46c-4.52-0.2-8.62,3.41-12.28,10.81
		c-0.97,1.97-1.98,4.4-3.08,7.31l-0.02,0.02c-0.89,2.43-1.38,3.76-1.49,3.98c-0.27,0.52-0.33,1.03-0.14,1.59
		c0.17,0.54,0.49,0.95,1.01,1.22c0.49,0.26,1.02,0.31,1.57,0.14c0.31-0.1,0.58-0.26,0.81-0.47c0.14-0.14,0.29-0.33,0.41-0.54
		c0.15-0.24,0.71-1.75,1.71-4.5c1.01-2.79,1.98-5.1,2.91-6.93v0.02c2.7-5.47,5.57-8.32,8.58-8.53c1.9,0.07,3.64,1.03,5.18,2.93v0.02
		C259.87,76.21,260.82,79.06,260.8,82.46"/>
	<path class="st1" d="M260.8,82.46c0.02-3.41-0.93-6.26-2.85-8.59v-0.02c-1.54-1.9-3.28-2.86-5.18-2.93
		c-3.01,0.21-5.88,3.06-8.58,8.53v-0.02c-0.93,1.83-1.9,4.15-2.91,6.93c-1.01,2.75-1.57,4.25-1.71,4.5
		c-0.12,0.21-0.27,0.4-0.41,0.54l7.78,8.26c0.2-0.21,0.45-0.35,0.76-0.45l0.27-0.1c0.45-0.21,0.97-0.47,1.57-0.82
		c1.72-1.01,3.35-2.23,4.91-3.65h0.02C258.63,90.72,260.74,86.67,260.8,82.46"/>
	<path class="st0" d="M247.96,201.98c0.14,0.1,0.33,0.21,0.51,0.29c0.27,0.12,1.86,0.47,4.79,1.07c2.87,0.59,5.31,1.2,7.29,1.8
		l0.02,0.02c5.8,1.86,9.02,4.25,9.68,7.21c0.23,1.88-0.5,3.73-2.13,5.53l-0.02,0.02c-2.02,2.23-4.71,3.59-8.03,4.11
		c-4.19,0.58-8.5-0.91-12.96-4.43h-0.02c-1.63-1.32-3.07-2.75-4.31-4.29c-0.02-0.02-0.02-0.02-0.02-0.04
		c-0.39-0.47-0.73-0.89-0.97-1.24c-0.1-0.19-0.23-0.39-0.37-0.6c-0.12-0.19-0.27-0.35-0.44-0.5c-0.24-0.19-0.54-0.33-0.87-0.39
		c-0.55-0.1-1.07,0-1.55,0.31c-0.47,0.32-0.78,0.77-0.89,1.32c-0.1,0.57,0,1.08,0.31,1.55c0.02,0.04,0.06,0.08,0.1,0.12
		c0.04,0.1,0.1,0.22,0.16,0.33c0.33,0.5,0.78,1.08,1.34,1.74l-0.04-0.02c1.42,1.78,3.09,3.43,4.97,4.94v0.02
		c5.55,4.39,10.94,6.15,16.16,5.28c4.35-0.68,7.84-2.48,10.46-5.43c0-0.02,0-0.02,0.02-0.02c2.62-2.87,3.67-5.86,3.16-8.94
		c-0.51-4.48-4.68-7.99-12.53-10.51h-0.04c-2.08-0.64-4.62-1.28-7.66-1.92h-0.02c-2.51-0.52-3.9-0.81-4.13-0.87
		c-0.52-0.21-1.05-0.18-1.57,0.04c-0.51,0.23-0.89,0.6-1.09,1.14c-0.2,0.52-0.18,1.05,0.04,1.57
		C247.48,201.5,247.69,201.77,247.96,201.98"/>
	<path class="st1" d="M248.47,202.27c-0.18-0.08-0.37-0.19-0.51-0.29l-6.98,8.94c0.17,0.15,0.31,0.31,0.43,0.5
		c0.15,0.21,0.27,0.41,0.38,0.6c0.25,0.35,0.58,0.77,0.97,1.24c0,0.02,0,0.02,0.02,0.05c1.24,1.55,2.68,2.97,4.31,4.3h0.02
		c4.46,3.53,8.77,5.01,12.96,4.43c3.32-0.52,6-1.88,8.03-4.11l0.02-0.02c1.63-1.8,2.35-3.66,2.13-5.53
		c-0.67-2.95-3.88-5.35-9.68-7.21l-0.02-0.02c-1.98-0.6-4.42-1.2-7.29-1.79C250.33,202.74,248.74,202.39,248.47,202.27"/>
	<path class="st0" d="M72.49,131.88l-0.56,0.02l-11.99,0.54h-0.23c-0.57,0.02-1.05,0.25-1.44,0.68c-0.39,0.42-0.56,0.91-0.53,1.49
		c0.02,0.56,0.25,1.03,0.68,1.42c0.35,0.33,0.78,0.51,1.26,0.54h0.23l12.78-0.56c0.17-0.02,0.33-0.05,0.5-0.08
		c0.35-0.11,0.66-0.29,0.93-0.58c0.4-0.43,0.56-0.93,0.54-1.49c-0.02-0.58-0.25-1.06-0.67-1.45
		C73.54,132.03,73.04,131.86,72.49,131.88"/>
	<path class="st2" d="M59.89,136.57h-0.23c-0.25,4.89-0.25,9.72,0,14.51l16.57-2.6c-0.84-4.28-1.88-8.46-3.08-12.55
		c-0.17,0.04-0.33,0.06-0.5,0.08L59.89,136.57z"/>
	<path class="st2" d="M59.94,132.44l11.99-0.54c-2.37-7.21-5.3-14.12-8.79-20.72C61.54,118.34,60.49,125.44,59.94,132.44"/>
	<path class="st0" d="M76.33,148.45l-0.08,0.02l-16.57,2.6l-0.19,0.01c-0.55,0.08-1.01,0.35-1.34,0.83
		c-0.35,0.48-0.47,0.99-0.37,1.55c0.08,0.56,0.35,0.99,0.81,1.34c0.41,0.31,0.87,0.43,1.38,0.39c0.04,0,0.11,0,0.17-0.02l16.84-2.64
		h0.04c0.54-0.1,0.97-0.37,1.3-0.82c0.33-0.48,0.45-0.97,0.37-1.53c-0.11-0.55-0.37-1.01-0.83-1.34
		C77.38,148.49,76.88,148.37,76.33,148.45"/>
	<path class="st2" d="M77.01,152.54h-0.04l-16.84,2.64c-0.07,0.02-0.13,0.02-0.17,0.02c0.29,3.58,0.73,7.1,1.3,10.61h0.02
		l17.01-2.82c0.04-0.02,0.08-0.02,0.14-0.02C78.06,159.44,77.58,155.95,77.01,152.54"/>
	<path class="st0" d="M79.81,163.34c-0.43-0.31-0.88-0.43-1.38-0.37c-0.06,0-0.11,0-0.15,0.02l-17.01,2.82h-0.03
		c-0.56,0.11-1.01,0.38-1.32,0.83c-0.33,0.47-0.45,0.98-0.35,1.54c0.09,0.56,0.35,0.99,0.83,1.33c0.47,0.32,0.99,0.44,1.55,0.35
		l0.04-0.02l16.8-2.78l0.16-0.02c0.55-0.1,0.99-0.37,1.34-0.85c0.31-0.48,0.43-0.97,0.35-1.53
		C80.56,164.12,80.29,163.66,79.81,163.34"/>
	<path class="st0" d="M64.12,183.24c-0.35,0.43-0.52,0.92-0.45,1.5c0.04,0.56,0.29,1.03,0.74,1.39c0.43,0.35,0.93,0.52,1.51,0.47
		l0.45-0.04l12.92-1.24l0.23-0.02c0.56-0.06,1.03-0.31,1.38-0.74c0.35-0.44,0.52-0.95,0.48-1.51c-0.06-0.58-0.31-1.05-0.74-1.4
		c-0.39-0.31-0.83-0.47-1.3-0.47c-0.06,0-0.14,0-0.21,0.01l-13.6,1.31c-0.14,0.01-0.29,0.04-0.41,0.08
		C64.72,182.68,64.4,182.91,64.12,183.24"/>
	<path class="st2" d="M62,169.86c0.83,4.28,1.86,8.51,3.12,12.72c0.12-0.04,0.27-0.07,0.41-0.08l13.6-1.31
		c0.07-0.01,0.14-0.01,0.2-0.01c0-4.79-0.18-9.5-0.53-14.1L62,169.86z"/>
	<path class="st2" d="M79.3,185.32l-12.92,1.24c2.77,8.32,6.36,16.51,10.8,24.54C78.41,202.23,79.11,193.64,79.3,185.32"/>
	<path class="st3" d="M63.13,111.18c-1.59,7.16-2.64,14.26-3.2,21.26 M59.93,132.44l-0.15,2.07 M65.71,184.54l0.66,2.02
		 M66.37,186.56c2.77,8.32,6.36,16.51,10.79,24.54 M77.17,211.1c1.24-8.87,1.94-17.46,2.13-25.78 M79.3,185.32l0.02-2.08
		 M79.32,183.24l0.02-2.06 M79.34,181.18c0-4.79-0.18-9.5-0.53-14.1 M78.8,167.07l-0.19-2.06 M78.61,165.01l-0.18-2.04
		 M78.43,162.97c-0.37-3.53-0.85-7.02-1.43-10.42 M77.01,152.54l-0.37-2.05 M76.63,150.49l-0.4-2.02 M76.24,148.48
		c-0.84-4.28-1.88-8.46-3.07-12.55 M73.17,135.93l-0.6-1.99 M72.57,133.94l-0.64-2.04 M71.93,131.9c-2.38-7.2-5.3-14.12-8.79-20.72
		 M59.79,134.5l-0.12,2.06 M59.67,136.57c-0.25,4.89-0.25,9.72,0,14.51 M59.67,151.08l0.12,2.06 M61.61,167.84l0.39,2.02 M62,169.86
		c0.82,4.28,1.86,8.51,3.11,12.72 M65.11,182.57l0.6,1.96 M59.79,153.14l0.17,2.07 M59.95,155.2c0.29,3.58,0.72,7.1,1.3,10.61
		 M61.25,165.81l0.35,2.03"/>
	<path class="st0" d="M61.75,109.67c-0.33,0.29-0.53,0.64-0.62,1.08c-7.9,36.06-3.15,69.85,14.25,101.37
		c0.2,0.39,0.51,0.68,0.93,0.86c0.4,0.19,0.8,0.23,1.24,0.17c0.43-0.1,0.81-0.31,1.12-0.62c0.31-0.31,0.5-0.7,0.56-1.13
		c5.45-39.18,0.71-72.92-14.24-101.17c-0.21-0.39-0.49-0.68-0.89-0.88c-0.39-0.19-0.81-0.27-1.22-0.2
		C62.43,109.19,62.06,109.36,61.75,109.67 M75.95,204.31c-13.54-27.23-17.52-56.17-11.97-86.82
		C75.62,142.32,79.61,171.27,75.95,204.31"/>
</g>
</svg>
