<?xml version="1.0" encoding="utf-8"?>
<!-- Generator: Adobe Illustrator 24.0.3, SVG Export Plug-In . SVG Version: 6.00 Build 0)  -->
<svg version="1.1" id="Layer_1" xmlns="http://www.w3.org/2000/svg" xmlns:xlink="http://www.w3.org/1999/xlink" x="0px" y="0px"
	 viewBox="0 0 300 300" style="enable-background:new 0 0 300 300;" xml:space="preserve">
<style type="text/css">
	.st0{clip-path:url(#SVGID_2_);fill:#743939;}
	.st1{clip-path:url(#SVGID_4_);fill:#1F7B3D;}
	.st2{clip-path:url(#SVGID_6_);fill:#743939;}
	.st3{clip-path:url(#SVGID_8_);fill:#BB6161;}
	.st4{clip-path:url(#SVGID_10_);fill:#743939;}
	.st5{clip-path:url(#SVGID_12_);fill:#BB6161;}
	.st6{clip-path:url(#SVGID_14_);fill:#D1A0A5;}
	.st7{clip-path:url(#SVGID_16_);fill:#743939;}
	.st8{clip-path:url(#SVGID_18_);fill:#BB6161;}
	.st9{clip-path:url(#SVGID_20_);fill:#743939;}
</style>
<g>
	<g>
		<defs>
			<rect id="SVGID_1_" x="-170.8" y="-312.9" width="641.7" height="907.5"/>
		</defs>
		<clipPath id="SVGID_2_">
			<use xlink:href="#SVGID_1_"  style="overflow:visible;"/>
		</clipPath>
		<path class="st0" d="M228,96.5c-0.1,7-1.2,11.5-3.3,13.3c-2.1,1-5.3-0.1-9.6-3.3c-12.6-9.2-22.2-13.7-28.6-13.6
			c-6.7,0-12.9,2.1-18.7,6.4c-5.8,4.1-10.3,12.3-13.6,24.6c-3.9,12.8,5.6,25.9,28.8,39.5c0.7,0.4,1.6,0.6,2.4,0.4s1.5-0.7,2-1.5
			c0.4-0.8,0.6-1.6,0.4-2.4c-0.2-0.9-0.8-1.5-1.5-2c-19.5-11.5-28.1-22.2-25.8-32.3v0c2.8-10.5,6.6-17.5,11.2-21.1
			c4.6-3.4,9.5-5.1,14.8-5.1c5.5,0.2,13.8,4.3,24.9,12.4c7.5,5.5,13.2,6.6,17.2,3.4c3.9-2.4,5.9-8.5,6-18.5
			c0.3-18.8-10.3-30.4-31.8-35c-0.9-0.2-1.7,0-2.4,0.5s-1.2,1.2-1.4,2c-0.2,0.9,0,1.7,0.5,2.4c0.5,0.7,1.2,1.2,2,1.4
			C219.1,71.7,228,81.2,228,96.5"/>
	</g>
	<g>
		<defs>
			<rect id="SVGID_3_" x="-170.8" y="-312.9" width="641.7" height="907.5"/>
		</defs>
		<clipPath id="SVGID_4_">
			<use xlink:href="#SVGID_3_"  style="overflow:visible;"/>
		</clipPath>
		<path class="st1" d="M164.3,146c-0.8,0.3-1.4,0.9-1.8,1.7c-2.1,4.8-3.2,10-3.2,15.8c0,4.1,1,10,3,17.6c1.8,6.9,2.8,12.3,2.8,16.3
			c-0.1,8.2-4.6,14.2-13.4,17.9c-6.6,2.7-14.6,4.1-24,4.1c-0.9,0-1.7,0.3-2.3,1c-0.7,0.6-1,1.4-1,2.3s0.3,1.6,1,2.3
			c0.6,0.6,1.4,0.9,2.3,0.9c10.4,0,19.2-1.5,26.5-4.6c11.7-4.9,17.5-12.9,17.4-23.9c0-4.3-1-10.3-3-17.9c-1.8-6.9-2.8-12.3-2.8-16
			c0-4.8,0.9-9.2,2.6-13.2c0.4-0.8,0.4-1.7,0-2.5c-0.3-0.8-0.9-1.4-1.7-1.8C166,145.7,165.1,145.7,164.3,146"/>
	</g>
	<g>
		<defs>
			<rect id="SVGID_5_" x="-170.8" y="-312.9" width="641.7" height="907.5"/>
		</defs>
		<clipPath id="SVGID_6_">
			<use xlink:href="#SVGID_5_"  style="overflow:visible;"/>
		</clipPath>
		<path class="st2" d="M173,145.5L173,145.5c-12.8-12.6-28.1-18.8-46.1-18.8c-18,0-33.3,6.3-46,18.8C68.2,158,61.8,173.2,61.8,191
			c0,17.8,6.4,32.9,19.1,45.5c12.7,12.6,28,18.8,46,18.8c18,0,33.3-6.3,46-18.8h0c12.7-12.6,19.1-27.8,19.1-45.5
			C192.1,173.2,185.8,158,173,145.5 M168.5,150c11.5,11.3,17.2,25,17.2,41c0,15.9-5.7,29.6-17.2,40.9c-11.5,11.3-25.3,17-41.5,17
			c-16.2,0-30-5.6-41.5-17c-11.5-11.3-17.2-25-17.2-40.9c0-16,5.8-29.6,17.2-41c11.4-11.3,25.3-17,41.5-17
			C143.2,133.1,157,138.7,168.5,150"/>
	</g>
	<g>
		<defs>
			<rect id="SVGID_7_" x="-170.8" y="-312.9" width="641.7" height="907.5"/>
		</defs>
		<clipPath id="SVGID_8_">
			<use xlink:href="#SVGID_7_"  style="overflow:visible;"/>
		</clipPath>
		<path class="st3" d="M170.5,148.1c-12.1-11.9-26.6-17.8-43.7-17.8c-17.1,0-31.6,5.9-43.7,17.8C71.1,160,65,174.4,65,191.2
			c0,16.8,6.1,31.1,18.1,43.1c12,11.9,26.6,17.9,43.7,17.9c17,0,31.6-5.9,43.7-17.9c12.1-11.9,18.1-26.3,18.1-43.1
			C188.6,174.4,182.6,160,170.5,148.1"/>
	</g>
	<g>
		<defs>
			<rect id="SVGID_9_" x="-170.8" y="-312.9" width="641.7" height="907.5"/>
		</defs>
		<clipPath id="SVGID_10_">
			<use xlink:href="#SVGID_9_"  style="overflow:visible;"/>
		</clipPath>
		<path class="st4" d="M193.1,153.2L193.1,153.2c-12.8-12.6-28.1-18.8-46.1-18.8c-18,0-33.3,6.3-46,18.8
			c-12.8,12.6-19.1,27.8-19.1,45.5c0,17.8,6.4,32.9,19.1,45.5c12.7,12.6,28,18.8,46,18.8c17.9,0,33.3-6.3,46-18.8h0
			c12.7-12.6,19.1-27.8,19.1-45.5C212.2,180.9,205.8,165.8,193.1,153.2 M188.5,157.8c11.5,11.3,17.2,25,17.2,41
			c0,16-5.7,29.6-17.2,40.9c-11.5,11.3-25.3,17-41.5,17c-16.2,0-30-5.6-41.5-17c-11.5-11.3-17.2-25-17.2-40.9c0-16,5.8-29.6,17.2-41
			c11.4-11.3,25.3-17,41.5-17C163.2,140.8,177.1,146.5,188.5,157.8"/>
	</g>
	<g>
		<defs>
			<rect id="SVGID_11_" x="-170.8" y="-312.9" width="641.7" height="907.5"/>
		</defs>
		<clipPath id="SVGID_12_">
			<use xlink:href="#SVGID_11_"  style="overflow:visible;"/>
		</clipPath>
		<path class="st5" d="M190.6,156.4c-12-11.8-26.5-17.7-43.4-17.7c-16.9,0-31.4,5.9-43.3,17.7c-12,11.9-18,26.1-18,42.8
			c0,16.7,6,30.9,18,42.8c11.9,11.8,26.4,17.7,43.3,17.7c16.9,0,31.4-5.9,43.4-17.7c12-11.9,18-26.1,18-42.8
			C208.5,182.4,202.6,168.2,190.6,156.4"/>
	</g>
	<g>
		<defs>
			<rect id="SVGID_13_" x="-170.8" y="-312.9" width="641.7" height="907.5"/>
		</defs>
		<clipPath id="SVGID_14_">
			<use xlink:href="#SVGID_13_"  style="overflow:visible;"/>
		</clipPath>
		<path class="st6" d="M180.4,231.8c9.2-9.1,13.9-20.2,13.9-33.1c0-12.9-4.6-23.9-13.9-33C171.1,156.5,160,152,147,152
			c-13.1,0-24.2,4.6-33.4,13.7c-9.2,9.1-13.9,20.2-13.9,33c0,12.9,4.6,23.9,13.9,33.1c9.2,9.1,20.3,13.6,33.4,13.6
			C160,245.4,171.1,240.8,180.4,231.8 M147,159.4c11,0,20.4,3.8,28.2,11.5c7.8,7.7,11.6,16.9,11.6,27.8s-3.9,20.1-11.6,27.8
			C167.4,234.2,158,238,147,238c-11,0-20.3-3.8-28.1-11.6c-7.8-7.6-11.7-16.9-11.7-27.8s3.9-20.1,11.7-27.8
			C126.6,163.2,136,159.4,147,159.4"/>
	</g>
	<g>
		<defs>
			<rect id="SVGID_15_" x="-170.8" y="-312.9" width="641.7" height="907.5"/>
		</defs>
		<clipPath id="SVGID_16_">
			<use xlink:href="#SVGID_15_"  style="overflow:visible;"/>
		</clipPath>
		<path class="st7" d="M196.7,24.9c-6.1-1.6-11.9-0.9-17.4,2.3c-5.5,3.2-9.1,7.8-10.7,13.9v0c-1.6,6.1-0.9,11.9,2.3,17.4
			c3.2,5.5,7.8,9.1,14,10.7c6.1,1.7,11.9,0.9,17.4-2.3c5.5-3.2,9.1-7.8,10.7-14c1.6-6.1,0.9-11.9-2.3-17.4
			C207.5,30.1,202.9,26.5,196.7,24.9 M181.1,29.4c4.8-2.8,9.9-3.5,15.2-2c5.3,1.5,9.4,4.5,12.2,9.3c2.8,4.8,3.4,9.8,2,15.2v0
			c-1.4,5.3-4.6,9.4-9.3,12.2c-4.8,2.7-9.9,3.4-15.2,2c-5.3-1.4-9.4-4.5-12.1-9.3c-2.8-4.8-3.5-9.9-2-15.2
			C173.2,36.2,176.3,32.2,181.1,29.4"/>
	</g>
	<g>
		<defs>
			<rect id="SVGID_17_" x="-170.8" y="-312.9" width="641.7" height="907.5"/>
		</defs>
		<clipPath id="SVGID_18_">
			<use xlink:href="#SVGID_17_"  style="overflow:visible;"/>
		</clipPath>
		<path class="st8" d="M196.2,27.4c-5.3-1.5-10.4-0.8-15.2,2c-4.8,2.8-7.9,6.8-9.3,12.2c-1.4,5.4-0.8,10.4,2,15.2
			c2.7,4.8,6.8,7.9,12.1,9.3c5.4,1.4,10.4,0.8,15.2-2c4.8-2.8,7.9-6.8,9.3-12.2v0c1.4-5.3,0.7-10.4-2-15.1
			C205.6,32,201.6,28.9,196.2,27.4 M195.4,30.5c4.5,1.2,7.9,3.8,10.3,7.9c2.3,4,2.9,8.3,1.7,12.8c-1.2,4.5-3.9,8-7.9,10.3
			c-4,2.3-8.3,2.9-12.9,1.7c-4.6-1.2-8-3.8-10.3-7.9c-2.4-4.1-2.9-8.4-1.7-12.9v0c1.2-4.5,3.8-7.9,7.9-10.3
			C186.6,29.8,190.9,29.3,195.4,30.5"/>
	</g>
	<g>
		<defs>
			<rect id="SVGID_19_" x="-170.8" y="-312.9" width="641.7" height="907.5"/>
		</defs>
		<clipPath id="SVGID_20_">
			<use xlink:href="#SVGID_19_"  style="overflow:visible;"/>
		</clipPath>
		<path class="st9" d="M195.4,30.5c-4.5-1.2-8.8-0.6-12.9,1.7c-4.1,2.3-6.7,5.8-7.9,10.3v0c-1.2,4.5-0.6,8.8,1.7,12.9
			c2.3,4,5.8,6.7,10.3,7.9c4.5,1.2,8.8,0.6,12.9-1.7c4-2.4,6.7-5.8,7.9-10.3c1.2-4.5,0.6-8.8-1.7-12.8
			C203.3,34.3,199.9,31.7,195.4,30.5 M194.8,33.1L194.8,33.1c3.7,1,6.6,3.2,8.6,6.6c2,3.3,2.4,6.9,1.4,10.7v0
			c-1.1,3.8-3.3,6.7-6.6,8.7c-3.4,2-7,2.4-10.8,1.4c-3.8-1-6.6-3.2-8.6-6.6c-2-3.4-2.4-7-1.4-10.8s3.2-6.6,6.6-8.6
			C187.4,32.6,191,32.1,194.8,33.1"/>
	</g>
</g>
</svg>
