<svg id="Layer_1" data-name="Layer 1" xmlns="http://www.w3.org/2000/svg" viewBox="0 0 300 300"><defs><style>.cls-1{fill:#2a2828;}.cls-2{fill:#5c676d;}.cls-3{fill:#1e1e1e;}.cls-4{fill:#fff;}</style></defs><g id="Layer7_5_MEMBER_0_MEMBER_0_FILL" data-name="Layer7 5 MEMBER 0 MEMBER 0 FILL"><path class="cls-1" d="M115.89,216.8l-4.5.81q1.92,18.48,4,24.08a10.43,10.43,0,0,1-4.79-.59,2.18,2.18,0,0,0-1.76.15,2.41,2.41,0,0,0-1,3.16,2.54,2.54,0,0,0,1.4,1.18,11.69,11.69,0,0,0,5.89,1,6.57,6.57,0,0,0,4-1.47,3.87,3.87,0,0,0,1.25-2.14v-1Q117.8,236.1,115.89,216.8Z"/></g><g id="Layer7_5_MEMBER_1_MEMBER_0_FILL" data-name="Layer7 5 MEMBER 1 MEMBER 0 FILL"><path class="cls-1" d="M141.51,211.35l-4.49.81q1.9,18.48,4,24.08a10.25,10.25,0,0,1-4.78-.59,2.2,2.2,0,0,0-1.77.15,2.24,2.24,0,0,0-1.1,1.4,2,2,0,0,0,.14,1.69,2.62,2.62,0,0,0,1.4,1.18,12.33,12.33,0,0,0,5.89,1,6,6,0,0,0,4-1.47,3.81,3.81,0,0,0,1.25-2.14v-1Q143.43,230.35,141.51,211.35Z"/></g><g id="Layer7_5_MEMBER_2_MEMBER_0_FILL" data-name="Layer7 5 MEMBER 2 MEMBER 0 FILL"><path class="cls-1" d="M178.25,205.83l-4.42.88q1.77,18.27,3.9,24a10.28,10.28,0,0,1-4.71-.52,2.34,2.34,0,0,0-2.94,1.55,1.86,1.86,0,0,0,.22,1.69,2.59,2.59,0,0,0,1.32,1.18,12.33,12.33,0,0,0,5.89,1,6,6,0,0,0,4.05-1.47,3.81,3.81,0,0,0,1.25-2.14v-1Q180.38,225.34,178.25,205.83Z"/></g><g id="Layer7_5_MEMBER_3_FILL" data-name="Layer7 5 MEMBER 3 FILL"><path class="cls-2" d="M262.77,133.16q-21.12-5.16-44.69,3.9t-35.78,27q-12.23,18-6,34.24t27.39,21.5q21.14,5.09,44.7-4t35.78-27q12.3-18,6-34.23T262.77,133.16Z"/></g><g id="Layer7_5_MEMBER_4_FILL" data-name="Layer7 5 MEMBER 4 FILL"><path class="cls-3" d="M219.11,139.56a80.31,80.31,0,0,1,27.1-5.44,55.82,55.82,0,0,1,24.15,4.41q13,5.75,17.23,17a26.51,26.51,0,0,1,1.84,9.94q0,14-11.71,27.32t-30.26,20.54q-19.8,7.59-38.29,4.79t-27-14.73l-1-1.47-2.94,2.94-.52.45-.44.51.73,1q9.72,13.26,29.9,16.49t41.52-4.93q24.45-9.42,37.19-28.35t6.26-36.15v-.07l-.15-.3q-6.71-17.3-28.79-22.89t-46.76,3.82a83.48,83.48,0,0,0-26.65,16.28q-11.34,10.31-16.05,22.67l-.74,1.84,2,.23,3.39.73.51-1.25q4.35-11.11,14.88-20.54A78.3,78.3,0,0,1,219.11,139.56Z"/></g><g id="Layer7_5_MEMBER_5_FILL" data-name="Layer7 5 MEMBER 5 FILL"><path class="cls-2" d="M190.1,191.84q0-11.78-9.94-20.1t-23.93-8.32q-14,0-23.93,8.32t-9.94,20.1q0,11.79,9.94,20.1t23.93,8.32q14.07,0,23.93-8.32T190.1,191.84Z"/></g><g id="Layer7_5_MEMBER_6_FILL" data-name="Layer7 5 MEMBER 6 FILL"><path class="cls-3" d="M182.3,169.75q-10.83-9.19-26.07-9.2a40.74,40.74,0,0,0-18.48,4.27l-1.62.74,1.62,3.53.67,1.91,1.84-.88a35.25,35.25,0,0,1,16-3.75q12.81,0,21.87,7.43t9.06,18q0,10.53-9.06,18t-21.87,7.51a35.71,35.71,0,0,1-15.75-3.53,28.08,28.08,0,0,1-11.34-9.8l-.59-.73-.07-.15v-.07l-.89-.81-1.18,1.17.08.15-1.7,2.65v.08h-.07l-.22.44,1,.59.22.29.22.22-.44.3-.89-.37.3.44a34.66,34.66,0,0,0,13.4,11,41.13,41.13,0,0,0,18,4q15.24,0,26.07-9.21t10.75-22.16Q193.05,178.88,182.3,169.75Z"/></g><g id="Layer7_5_MEMBER_7_FILL" data-name="Layer7 5 MEMBER 7 FILL"><path class="cls-2" d="M88.13,126.09q-22.6,0-38.51,15.24t-16,36.89q0,21.65,16,37t38.51,15.24q22.61,0,38.5-15.24t16-37q0-21.57-16-36.89T88.13,126.09Z"/></g><g id="Layer7_5_MEMBER_8_MEMBER_0_MEMBER_0_FILL" data-name="Layer7 5 MEMBER 8 MEMBER 0 MEMBER 0 FILL"><path class="cls-3" d="M65.23,127.78l.66,1.77.07-.07L67.73,133l1.47-.59a53.31,53.31,0,0,1,35.49-.81l1.92.67.59-4.05.07-.15v-.22l.22-1.47-1.4-.45a59.43,59.43,0,0,0-39.17,1.11l-.81.29-.07.08Z"/></g><g id="Layer7_5_MEMBER_8_MEMBER_1_FILL" data-name="Layer7 5 MEMBER 8 MEMBER 1 FILL"><path class="cls-3" d="M71,131.76l-2.13-4.49a.92.92,0,0,0-.81-.52,4,4,0,0,0-1.11.3A56.23,56.23,0,0,0,40.56,147.3a52.26,52.26,0,0,0-9.86,30.92q0,22.83,16.86,38.95t40.57,16.12q23.78,0,40.57-16.12t16.86-38.95A52.18,52.18,0,0,0,134.66,146a56.1,56.1,0,0,0-28.57-20l-2.06-.66-.22,2.06-.07.3-.22,2.06-.3,1.47,1.47.44a50.14,50.14,0,0,1,25.33,18,46.47,46.47,0,0,1,9.65,28.64q0,20.4-15.1,34.83T88.13,227.48q-21.36,0-36.45-14.43T36.51,178.22a46.43,46.43,0,0,1,8.91-27.68A50.77,50.77,0,0,1,69.2,132.42Z"/></g><g id="Layer7_5_MEMBER_9_FILL" data-name="Layer7 5 MEMBER 9 FILL"><path class="cls-4" d="M134.07,179.4a15.93,15.93,0,0,0-27.24-11.27,15.24,15.24,0,0,0-4.71,11.27,16,16,0,1,0,31.95,0Z"/></g><g id="Layer7_5_MEMBER_10_FILL" data-name="Layer7 5 MEMBER 10 FILL"><path class="cls-4" d="M46.89,168.13a15.24,15.24,0,0,0-4.71,11.27,16,16,0,0,0,16,16,15.83,15.83,0,0,0,15.9-16,15.94,15.94,0,0,0-15.9-16A15.24,15.24,0,0,0,46.89,168.13Z"/></g><g id="Layer7_5_MEMBER_11_MEMBER_0_FILL" data-name="Layer7 5 MEMBER 11 MEMBER 0 FILL"><path class="cls-1" d="M97.18,214.89a16.5,16.5,0,0,0,5.45-8.62,37.32,37.32,0,0,1-16.2,3.39,37.45,37.45,0,0,1-13-2.14,15.8,15.8,0,0,0,5.52,7.74,14.66,14.66,0,0,0,18.26-.37Z"/></g><g id="Layer7_5_MEMBER_12_FILL" data-name="Layer7 5 MEMBER 12 FILL"><path class="cls-1" d="M126.27,179.77a7,7,0,0,0-7-7,6.58,6.58,0,0,0-4.93,2.06,7,7,0,0,0,0,9.94,6.55,6.55,0,0,0,4.93,2.06,6.72,6.72,0,0,0,4.94-2.06A6.82,6.82,0,0,0,126.27,179.77Z"/></g><g id="Layer7_5_MEMBER_13_FILL" data-name="Layer7 5 MEMBER 13 FILL"><path class="cls-1" d="M52.05,174.83a7,7,0,0,0,0,9.94A6.55,6.55,0,0,0,57,186.83a6.72,6.72,0,0,0,4.94-2.06,7,7,0,0,0-4.94-12A6.58,6.58,0,0,0,52.05,174.83Z"/></g><g id="Layer7_5_MEMBER_14_FILL" data-name="Layer7 5 MEMBER 14 FILL"><path class="cls-3" d="M166.91,53.49a7.36,7.36,0,0,0-12.59,5.23v.07q-13,6.48-24.89,19.15Q108.6,100,101.82,131.76a2.76,2.76,0,0,0,.37,2.06,2.49,2.49,0,0,0,1.69,1.18,2.79,2.79,0,0,0,2.07-.37,2.72,2.72,0,0,0,1.17-1.77q6.41-29.88,25.77-50.73A84.7,84.7,0,0,1,156.38,63.8a6.86,6.86,0,0,0,5.3,2.36,7.43,7.43,0,0,0,7.44-7.44A7.18,7.18,0,0,0,166.91,53.49Z"/></g><g id="Layer7_5_MEMBER_15_FILL" data-name="Layer7 5 MEMBER 15 FILL"><path class="cls-1" d="M12.58,66.3A7.33,7.33,0,0,0,18,64.1,85,85,0,0,1,41.37,82.5q19.22,20.76,25.55,50.44a3,3,0,0,0,1.33,1.84,2.54,2.54,0,0,0,2.13.37,2.72,2.72,0,0,0,1.84-1.25,3,3,0,0,0,.44-2.21Q65.82,100,45.13,77.94a90.22,90.22,0,0,0-25-19.29,7.5,7.5,0,0,0-2.28-5.3,7.22,7.22,0,0,0-5.31-2.21A7.55,7.55,0,0,0,5,58.72a7.53,7.53,0,0,0,7.58,7.58Z"/></g><g id="Layer7_5_MEMBER_16_MEMBER_0_FILL" data-name="Layer7 5 MEMBER 16 MEMBER 0 FILL"><path class="cls-1" d="M172.21,204.28a2.28,2.28,0,0,0-1,1.48,2.53,2.53,0,0,0,.37,1.76,2.29,2.29,0,0,0,1.55,1,2.2,2.2,0,0,0,1.69-.37q3-2.06,11.71-5.81,7.58-3.24,10-4,.22,4.13-.88,18.33-1.39,18.12-3.83,23.64v1a4.26,4.26,0,0,0,1.25,2.21,6.93,6.93,0,0,0,4.13,1.47,12.1,12.1,0,0,0,5.81-1,2.58,2.58,0,0,0,1.4-1.18,2.25,2.25,0,0,0,.15-1.77,2.32,2.32,0,0,0-1.11-1.4,2.22,2.22,0,0,0-1.76-.14A10.09,10.09,0,0,1,197,240q2.13-5.88,3.39-24.59,1.09-16.2.73-18.92a2.93,2.93,0,0,0-1.91-2.65q-2-.89-11.19,2.58A76,76,0,0,0,172.21,204.28Z"/></g><g id="Layer7_5_MEMBER_17_MEMBER_0_FILL" data-name="Layer7 5 MEMBER 17 MEMBER 0 FILL"><path class="cls-1" d="M163.38,200.82c-1.33-.63-4.1-.17-8.32,1.4a59.85,59.85,0,0,0-12.82,6.7,2.29,2.29,0,0,0-1,1.55,2.2,2.2,0,0,0,.37,1.69,2.07,2.07,0,0,0,1.54,1,2,2,0,0,0,1.69-.37,60.74,60.74,0,0,1,8.77-4.56,72,72,0,0,1,7.07-2.87q.36,3.6-.45,16.78-1,16.58-3.46,22.09v1a3.91,3.91,0,0,0,1.25,2.13,6.61,6.61,0,0,0,4.13,1.55,12.33,12.33,0,0,0,5.89-1,2.59,2.59,0,0,0,1.32-1.18,2,2,0,0,0,.22-1.77,2.19,2.19,0,0,0-1.17-1.39,2.17,2.17,0,0,0-1.77-.15,10.32,10.32,0,0,1-4.79.59q2.22-5.82,3-23.05.74-13.54.37-17.38A3,3,0,0,0,163.38,200.82Z"/></g><g id="Layer7_5_MEMBER_18_MEMBER_0_FILL" data-name="Layer7 5 MEMBER 18 MEMBER 0 FILL"><path class="cls-1" d="M227.87,210.1a2.27,2.27,0,0,0-1,1.55,2.2,2.2,0,0,0,.37,1.69,2.07,2.07,0,0,0,1.54,1,2,2,0,0,0,1.7-.37q4.18-2.81,15.6-9.72,12.38-7.58,13.85-8-2,32.91-5.82,41.6v1a3.75,3.75,0,0,0,1.33,2.14,6.65,6.65,0,0,0,4.12,1.47,11.42,11.42,0,0,0,5.82-1,2.57,2.57,0,0,0,1.32-1.17,2.08,2.08,0,0,0,.22-1.77,2.24,2.24,0,0,0-1.1-1.4,2.45,2.45,0,0,0-1.84-.15,10,10,0,0,1-4.72.59q2.15-6,4-24.44,1.47-16,1.25-18.71A3.87,3.87,0,0,0,261.6,191q-1.85-.51-14.66,7Q236.56,204.21,227.87,210.1Z"/></g></svg>