<?xml version="1.0" encoding="utf-8"?>
<!-- Generator: Adobe Illustrator 24.0.3, SVG Export Plug-In . SVG Version: 6.00 Build 0)  -->
<svg version="1.1" id="Layer_1" xmlns="http://www.w3.org/2000/svg" xmlns:xlink="http://www.w3.org/1999/xlink" x="0px" y="0px"
	 viewBox="0 0 300 300" style="enable-background:new 0 0 300 300;" xml:space="preserve">
<style type="text/css">
	.st0{fill:#B53926;}
	.st1{fill:#E74825;stroke:#E74825;}
	.st2{fill:#634119;}
	.st3{fill:#B6782B;stroke:#B6782B;}
	.st4{fill:#298040;}
	.st5{fill:#39B44A;stroke:#39B44A;}
	.st6{fill:#EC8C78;}
</style>
<g>
	<path class="st0" d="M223.98,245.28c20.75-26.27,31.66-56.38,32.65-90.41c1.03-34.74-9.67-59.06-32.07-72.91
		c-21.92-13.95-46.78-11.49-74.64,7.39c-27.12-18.77-53.13-19.94-78.03-3.49c-25.34,16.59-37.06,41.45-35.19,74.58
		c1.88,32.55,14.29,61.46,37.27,86.66c23.29,25.5,47.83,30.8,73.69,15.9C177.4,277.8,202.84,271.93,223.98,245.28 M147.89,96.3
		c0.59,0.45,1.26,0.65,1.98,0.65s1.37-0.2,1.98-0.62c25.85-18.15,48.86-21.03,69.07-8.58c20.18,12.82,29.79,35.15,28.86,66.92
		c-0.96,32.52-11.36,61.31-31.19,86.38c-19.18,24.18-42.33,29.2-69.47,15.04c-0.55-0.32-1.14-0.46-1.72-0.41
		c-0.57,0.03-1.13,0.21-1.64,0.51c-23.43,13.98-45.65,9.4-66.75-13.72c-21.88-24.01-33.71-51.45-35.49-82.39
		c-1.75-30.4,8.96-53.22,32.11-68.5C98.65,76.57,122.75,78.14,147.89,96.3"/>
	<path class="st1" d="M149.87,96.95c-0.71,0-1.41-0.2-1.98-0.65c-25.13-18.16-49.24-19.73-72.25-4.72
		c-23.15,15.29-33.86,38.1-32.11,68.48c1.78,30.96,13.61,58.4,35.5,82.41c21.1,23.12,43.32,27.7,66.74,13.72
		c0.51-0.3,1.06-0.48,1.64-0.52c0.59-0.02,1.16,0.13,1.72,0.43c27.15,14.16,50.29,9.13,69.47-15.04
		c19.83-25.06,30.23-53.85,31.19-86.38c0.92-31.77-8.69-54.1-28.86-66.92c-20.2-12.45-43.22-9.58-69.07,8.58
		C151.24,96.74,150.6,96.95,149.87,96.95"/>
	<path class="st2" d="M162.42,35.02c-0.1-0.48-0.31-0.92-0.62-1.3c-5.88-7.7-14.32-9.24-25.36-4.55c-0.79,0.31-1.33,0.85-1.71,1.64
		c-0.38,0.72-0.49,1.5-0.28,2.32c5.34,21.61,7.05,40.76,5.17,57.41c-0.1,0.79,0.06,1.51,0.47,2.16c2.77,4.61,5.27,6.94,7.46,7.01
		c0.91,0.17,1.74-0.04,2.54-0.58c0.78-0.54,1.26-1.26,1.43-2.19l10.97-60.49C162.56,35.98,162.53,35.5,162.42,35.02 M141.8,34.47
		c5.64-1.75,10.19-0.92,13.65,2.43l-8.37,46.09C147.72,68.46,145.97,52.29,141.8,34.47"/>
	<path class="st3" d="M155.45,36.9c-3.45-3.35-8-4.17-13.65-2.43c4.17,17.81,5.92,33.99,5.26,48.52L155.45,36.9z"/>
	<path class="st4" d="M234.92,61.83c-0.11-0.68-0.42-1.26-0.86-1.78c-0.44-0.51-0.99-0.82-1.64-0.99
		c-26.81-7.15-48.59-5.88-65.35,3.76c-13.16,7.49-20.78,18.71-22.9,33.69c-0.11,0.89,0.06,1.71,0.58,2.43
		c0.51,0.71,1.19,1.19,2.05,1.4c43.35,9.71,72.63-2.5,87.84-36.59C234.92,63.13,235.01,62.48,234.92,61.83 M211.86,73.87
		c0.31-0.34,0.48-0.75,0.48-1.2c0-0.48-0.18-0.89-0.52-1.2c-0.34-0.34-0.75-0.51-1.2-0.51c-21.36,0.03-40.79,6.7-58.26,19.93
		c2.88-9.54,8.9-16.89,18.1-22.13c14.59-8.17,33.3-9.54,56.18-4.14c-13.78,26.63-38.3,36.62-73.55,30.02
		c17.2-13.44,36.39-20.2,57.54-20.28C211.11,74.38,211.52,74.21,211.86,73.87"/>
	<path class="st5" d="M212.35,72.67c0,0.45-0.18,0.85-0.48,1.2c-0.34,0.34-0.75,0.51-1.22,0.51c-21.17,0.08-40.35,6.84-57.55,20.28
		c35.26,6.6,59.77-3.39,73.55-30.02c-22.88-5.41-41.58-4.04-56.18,4.14c-9.2,5.24-15.22,12.58-18.1,22.13
		c17.48-13.24,36.9-19.9,58.27-19.93c0.44,0,0.85,0.17,1.19,0.51C212.17,71.78,212.35,72.19,212.35,72.67"/>
	<path class="st6" d="M222.09,133.88c3.63,0,6.33-1.47,8.08-4.44c1.78-2.94,2.12-6.46,0.99-10.61c-1.13-4.17-3.39-7.72-6.78-10.67
		c-3.35-2.94-6.83-4.41-10.46-4.41c-3.66,0-6.36,1.47-8.14,4.41c-1.78,2.94-2.09,6.5-0.96,10.67c1.13,4.14,3.39,7.67,6.77,10.61
		C214.94,132.41,218.44,133.88,222.09,133.88"/>
</g>
</svg>
