<?xml version="1.0" encoding="utf-8"?>
<!-- Generator: Adobe Illustrator 24.0.3, SVG Export Plug-In . SVG Version: 6.00 Build 0)  -->
<svg version="1.1" id="Layer_1" xmlns="http://www.w3.org/2000/svg" xmlns:xlink="http://www.w3.org/1999/xlink" x="0px" y="0px"
	 viewBox="0 0 300 300" style="enable-background:new 0 0 300 300;" xml:space="preserve">
<style type="text/css">
	.st0{clip-path:url(#SVGID_2_);fill:#B8792A;}
	.st1{clip-path:url(#SVGID_2_);fill:#EA9A22;}
	.st2{clip-path:url(#SVGID_2_);fill:#A6BFCF;stroke:#53616B;stroke-width:4.6925;stroke-linecap:round;stroke-linejoin:round;}
</style>
<g>
	<defs>
		<rect id="SVGID_1_" x="-230.92" y="-388.73" width="761.84" height="1077.46"/>
	</defs>
	<clipPath id="SVGID_2_">
		<use xlink:href="#SVGID_1_"  style="overflow:visible;"/>
	</clipPath>
	<path class="st0" d="M170,88.04c-1.05-0.5-2.11-0.6-3.19-0.24l-28.51,9.31c-1.08,0.35-1.88,1.05-2.39,2.06
		c-0.56,1.03-0.65,2.09-0.34,3.18c15.2,50.61,26.47,90.98,33.78,121.12c7.86,32.81,16.29,49.49,25.23,50.01
		c7.94,1.14,16.77-0.85,26.47-6.03c11.31-5.43,12.34-18.08,3.11-38.03c-7.89-16.95-25.24-63.26-52.03-139.01
		C171.72,89.35,171.01,88.56,170,88.04 M144.87,103.86l20.67-6.75c26.13,73.87,43.11,119.18,50.93,135.9
		c6.52,14.1,6.75,23.11,0.58,26.99c-7.85,4.17-14.98,5.87-21.33,5.1c-5.48-1.37-11.51-15.9-18.15-43.59
		C170.42,192.02,159.52,152.82,144.87,103.86"/>
	<path class="st1" d="M159.3,70.92l-24.36,7.95c17.27,57.71,30.11,103.91,38.51,138.66c7.83,32.63,14.95,49.76,21.4,51.38
		c7.48,0.91,15.89-1.1,25.14-6.01c7.27-4.57,7-15.19-0.68-31.81C210.1,211.38,190.09,157.98,159.3,70.92"/>
	<path class="st2" d="M93.16,60.76c-0.95,0.31-1.87,0.35-2.79,0.07c-0.97-0.26-1.81-0.76-2.42-1.5c-0.72-0.76-1.11-1.63-1.21-2.59
		c-0.86-5.19-4.1-8.26-9.78-9.17c-5.53-0.96-10.58-0.09-15.18,2.61l19.44,59.53c2.8-0.86,6.56-2.14,11.23-3.82l0.05-0.01
		c5.16-2.26,6.91-7.48,5.29-15.77c-0.24-1.22-0.03-2.34,0.61-3.43c0.63-1.09,1.53-1.86,2.71-2.25l23.35-7.62
		c1.27-0.42,2.56-0.31,3.81,0.32c1.18,0.6,2.03,1.58,2.45,2.86l6.37,19.53l31.61-10.32l-10.04-30.75c-0.42-1.28-0.35-2.49,0.26-3.69
		c0.58-1.23,1.51-2.06,2.77-2.53c22.27-8.05,40.08-5.93,53.41,6.26c2.14,1.96,3.96,3.35,5.35,4.1c-0.16-5.79-5.49-13.46-16.07-22.99
		c-11.4-9.79-28.99-11.88-52.77-6.36l-33.54,10.95l-8.13,10.28c-0.63,0.78-1.45,1.31-2.4,1.62L93.16,60.76z"/>
</g>
</svg>
