<?xml version="1.0" encoding="utf-8"?>
<!-- Generator: Adobe Illustrator 24.0.3, SVG Export Plug-In . SVG Version: 6.00 Build 0)  -->
<svg version="1.1" id="Layer_1" xmlns="http://www.w3.org/2000/svg" xmlns:xlink="http://www.w3.org/1999/xlink" x="0px" y="0px"
	 viewBox="0 0 300 300" style="enable-background:new 0 0 300 300;" xml:space="preserve">
<style type="text/css">
	.st0{fill:#FBED34;}
	.st1{fill:none;stroke:#7D5C3A;stroke-width:5;stroke-linecap:round;stroke-linejoin:round;stroke-miterlimit:10;}
	.st2{fill:#DBCAB3;}
	.st3{fill:#464648;}
	.st4{fill:none;stroke:#464648;stroke-width:6.9972;stroke-linecap:round;stroke-linejoin:round;stroke-miterlimit:10;}
	.st5{fill:#EAD8BA;}
	.st6{fill:#DD2D32;}
	.st7{fill:none;stroke:#9F262D;stroke-width:3.9984;stroke-linecap:round;stroke-linejoin:round;stroke-miterlimit:10;}
	.st8{fill:#E6D8C7;}
	.st9{fill:#FFFFFF;}
	.st10{fill:#2A2828;}
	.st11{fill:none;stroke:#7D5C3A;stroke-width:3.9984;stroke-linecap:round;stroke-linejoin:round;stroke-miterlimit:10;}
</style>
<g>
	<path class="st0" d="M144.6,71.1c1.5-3.5,4.1-7.5,7.9-12c7.5-9,16.7-16.3,27.7-21.7c-14.1-3.6-27.6-0.6-40.6,8.8
		c-6.5,4.7-11.6,9.8-15.2,15.2L144.6,71.1L144.6,71.1z"/>
	<path class="st1" d="M152.4,59.1c7.5-9.1,16.7-16.3,27.7-21.7c-14-3.6-27.6-0.6-40.6,8.8c-6.5,4.7-11.6,9.8-15.2,15.2l20.2,9.8
		C146.1,67.7,148.7,63.7,152.4,59.1L152.4,59.1z"/>
	<polygon class="st2" points="128,220.9 125.5,246 152,246.7 154.4,223.3 128,220.9 	"/>
	<polyline class="st1" points="125.5,246 128,220.9 154.4,223.3 152,246.7 	"/>
	<polygon class="st2" points="212.6,247.2 239.1,247.9 241.5,224.5 215.1,222.1 212.6,247.2 	"/>
	<polyline class="st1" points="212.6,247.2 215.1,222.1 241.4,224.5 239.1,247.9 	"/>
	<polygon class="st3" points="239.1,247.9 212.6,247.2 205.3,266.9 237.2,266.9 239.1,247.9 	"/>
	<polygon class="st4" points="212.6,247.2 205.3,266.8 237.2,266.8 239.1,247.9 212.6,247.2 	"/>
	<path class="st2" d="M260.5,146l2.5,17.2l13.5-7.4c5.6-3.1,7.3-7.9,5.1-14.4c-0.7-2-1.8-4.1-3.2-6.2l-1.8-2.6L260.5,146L260.5,146z
		"/>
	<path class="st1" d="M260.5,146l2.5,17.3l13.5-7.5c5.6-3.1,7.3-7.9,5.1-14.4c-0.7-2-1.8-4.1-3.2-6.2l-1.9-2.6L260.5,146L260.5,146z
		"/>
	<polygon class="st3" points="152,246.7 125.5,246 118.2,265.6 150.1,265.6 152,246.7 	"/>
	<polygon class="st4" points="118.2,265.6 150.1,265.6 152,246.7 125.5,246 118.2,265.6 	"/>
	<path class="st5" d="M169.1,234.3l10.5-27l-0.7,25.8l11.1,0.6l7.9-25.2l0.6,23.9l44.2-0.6l9.8-22.1l-1.2,23.9h10.5
		c1.5-6.9,3-15.2,4.4-24.8c2.9-19.1,4-35.2,3.5-48.2c-0.5-13.1-7.3-21.7-20.4-25.9c-4.1-1.3-8.6-2.1-13.4-2.4l-103.6,1.8l-30.1,34.9
		l3.1,64.4L169.1,234.3L169.1,234.3z"/>
	<path class="st1" d="M269.7,160.8c-0.5-13-7.3-21.6-20.4-25.8c-4.1-1.3-8.6-2.1-13.4-2.4l-103.6,1.9l-30.1,34.9l3.2,64.4l63.7,0.6
		l10.5-27l-0.6,25.8l11.1,0.6l7.9-25.2l0.6,23.9l44.2-0.6l9.8-22.1l-1.3,23.9h10.5c1.5-6.9,3-15.2,4.5-24.8
		C269.1,189.9,270.2,173.8,269.7,160.8L269.7,160.8z"/>
	<path class="st6" d="M151.9,133.2h-10.3L101.3,177l0.7,9.4l10.5-3.1c8.3-3.5,15.6-8.6,21.8-15.5c6.3-6.9,11.2-14.7,14.5-23.5
		L151.9,133.2L151.9,133.2z"/>
	<path class="st7" d="M151.9,133.2l-3.1,11.1c-3.3,8.8-8.2,16.6-14.5,23.5c-6.3,6.9-13.6,12.1-21.8,15.5l-10.5,3.1l-0.7-9.4
		l40.3-43.8H151.9L151.9,133.2z"/>
	<path class="st2" d="M205.4,74.2l2.3-4.2L149.5,73c-1.2-2.5-3.4-5.2-6.5-8c-6.1-5.5-13.7-8.8-22.9-9.8c-1.4-0.2-3.3-0.1-5.4,0.1
		c-4.4,0.4-8.6,1.6-12.5,3.6c-12.4,6.2-19.7,18.7-22,37.4c-2.7,0.7-6.1,1.7-10.2,2.9c-8.5,2.5-15.9,5.4-22.3,8.5
		C26.4,118.2,17.8,131,21.9,146l0.5,3.7c0.8,3.1,2,6.1,3.8,9c5.7,9.3,15.7,16.1,30,20.5c0.8,0.8,1.1,3.1,0.7,6.7
		c-0.6,4.8-2.2,11.2-5,19.1c10,0,18-3.9,24-11.7c1.9-2.4,3.5-5.1,4.7-8l1.3-3.6l7.1-1c5.9-1.2,11.5-2.9,16.9-5.1
		c17.4-7.3,29.4-18.7,36-34.3c6.6-15.6,10.1-28.7,10.3-39.5c0.1-3.4-0.2-6.3-0.8-8.8l-0.9-2.7l5.4,3.9c5.2,2.5,11.8,3.7,19.7,3.4
		c7.9-0.2,15.7-4.9,23.1-13.9C201.3,80.7,203.4,77.6,205.4,74.2L205.4,74.2z"/>
	<path class="st8" d="M116.6,105.9c-6.9-2.2-14.7-4.2-23.4-6L82.2,98c-26.1,7.5-42.7,14.4-49.9,20.7c-3.5,3.1-5.8,6.7-7,10.9
		c-0.9,3-1.4,7.6-1.5,13.8c-0.2,8.9,4.4,16.8,13.7,23.7c2,1.5,7.5,4.5,16.4,8.9l4.9,2.5c1,1,0.8,5.4-0.7,13.2
		c-0.7,3.8-1.4,7.5-2.2,11c7.2-0.7,13.4-4.8,18.8-12.3c1.6-2.4,3.1-4.9,4.4-7.7l1.4-3.4c22.3-4.7,37.8-11.4,46.7-20.2
		c3.5-3.5,6.6-8,9.4-13.4c0.2-0.3,2.5-5.5,6.9-15.5C147.6,121,138.7,112.9,116.6,105.9L116.6,105.9z"/>
	<path class="st1" d="M120.1,55.3c9.2,1,16.9,4.3,22.9,9.8c3.1,2.8,5.2,5.4,6.5,8l58.2-3.1l-2.3,4.3c-2,3.4-4.1,6.5-6.4,9.3
		c-7.5,9.1-15.2,13.7-23.1,13.9c-7.9,0.3-14.5-0.9-19.7-3.4l-5.4-3.9l0.9,2.7c0.6,2.5,0.9,5.4,0.8,8.7c-0.2,10.8-3.7,23.9-10.3,39.5
		c-6.6,15.6-18.6,27.1-36,34.4c-5.4,2.2-11.1,3.9-16.9,5.1l-7.1,1l-1.3,3.7c-1.3,2.9-2.9,5.6-4.7,8c-6,7.8-14,11.7-24,11.7
		c2.7-7.9,4.4-14.3,5-19.1c0.4-3.6,0.2-5.9-0.7-6.7c-14.3-4.3-24.3-11.1-30-20.5c-1.8-2.9-3.1-5.9-3.8-9l-0.5-3.7
		c-2.6-14.9,2.6-25.7,15.7-32.6c13.1-6.9,23.9-11.6,32.3-14.1c4.2-1.3,7.6-2.2,10.3-2.9c2.3-18.7,9.6-31.1,22-37.4
		c3.8-1.9,8-3.1,12.5-3.6C116.8,55.2,118.6,55.1,120.1,55.3L120.1,55.3z"/>
	<path class="st9" d="M130.2,82c0-4.6-1.6-8.5-4.8-11.7c-3.3-3.2-7.2-4.8-11.7-4.8c-4.6,0-8.5,1.6-11.7,4.8
		c-3.2,3.3-4.8,7.2-4.8,11.7c0,4.6,1.6,8.5,4.8,11.7c3.2,3.2,7.1,4.8,11.7,4.8c4.6,0,8.5-1.6,11.7-4.8
		C128.6,90.5,130.2,86.6,130.2,82L130.2,82z"/>
	<path class="st10" d="M121,82.2c0-2-0.7-3.8-2.1-5.3c-1.4-1.4-3.2-2.1-5.2-2.1c-2,0-3.8,0.7-5.2,2.1c-1.4,1.5-2.1,3.3-2.1,5.3
		c0,2,0.7,3.7,2.1,5.1c1.4,1.4,3.2,2.1,5.2,2.1c2,0,3.7-0.7,5.2-2.1C120.3,85.9,121,84.2,121,82.2L121,82.2z"/>
	<path class="st11" d="M119.4,132.8l-3.5,5c-3.1,4-6.3,7.8-9.9,11.3c-11.3,11.3-22.9,18.1-34.9,20.5c-10.3,2-20.2,1.7-29.7-0.8
		c-3-0.9-5.7-1.8-8.3-3l-2.9-1.6 M33.9,124.9L32.7,136"/>
</g>
</svg>
