<?xml version="1.0" encoding="utf-8"?>
<!-- Generator: Adobe Illustrator 24.0.3, SVG Export Plug-In . SVG Version: 6.00 Build 0)  -->
<svg version="1.1" id="Layer_1" xmlns="http://www.w3.org/2000/svg" xmlns:xlink="http://www.w3.org/1999/xlink" x="0px" y="0px"
	 viewBox="0 0 300 300" style="enable-background:new 0 0 300 300;" xml:space="preserve">
<style type="text/css">
	.st0{fill:#3485B9;}
	.st1{fill:#82C0E9;}
	.st2{fill:#DEF2FC;}
	.st3{fill:#EBEAEA;}
	.st4{fill:#111111;}
</style>
<g>
	<path class="st0" d="M219.08,82.06c0.52-0.07,0.96-0.27,1.36-0.59c0.37-0.32,0.64-0.74,0.79-1.23c0.12-0.5,0.12-0.99-0.05-1.46
		c-0.18-0.49-0.47-0.89-0.89-1.19c-21.84-15.84-44.18-17.52-67.01-5.07c-3.58-0.96-7.27-1.78-11.05-2.44
		c-0.08-0.03-0.13-0.03-0.15-0.03c-0.91-0.12-1.78-0.19-2.64-0.27c-8.48-0.87-16.36-0.84-23.67,0.13c-0.15,0.02-0.27,0.02-0.39,0.05
		c-23.77,3.19-41.61,15.84-53.5,37.96c-1.24-0.12-2.67-0.17-4.32-0.17c-8.78,0-15.94,2.15-21.5,6.45
		c-4.18,3.16-6.67,6.65-7.52,10.48c-0.02,0.1-0.05,0.19-0.08,0.32c-0.22,0.99-0.32,2-0.32,3.01c-0.35,6.77,6.62,12.26,20.93,16.46
		c6.55,1.9,13.44,3.34,20.68,4.27h0.07c8.8,1.43,17.22,2.94,25.25,4.55h12.56c-0.03-0.15-0.03-0.3-0.03-0.44v-0.08
		c0.05-2.84,0.94-5.7,2.64-8.55c0.42-0.69,0.87-1.38,1.36-2.05c0.4-0.55,0.54-1.16,0.44-1.83c-0.1-0.67-0.42-1.21-0.99-1.61
		c-0.55-0.42-1.16-0.57-1.83-0.47c-0.66,0.1-1.21,0.42-1.6,0.99c-0.59,0.82-1.14,1.61-1.61,2.42c-0.25,0.39-0.47,0.79-0.69,1.21
		c-1.24,2.3-2.05,4.62-2.42,6.94c-7.98-1.65-16.39-3.26-25.16-4.77c-2.37-0.4-4.77-0.79-7.21-1.19c-0.03-0.03-0.05-0.03-0.08-0.03
		c-7.02-0.92-13.69-2.27-20.02-4.13c-10.5-3.09-16.24-6.67-17.23-10.8c30.25,11.74,52.46,12.21,66.62,1.36
		c0.55-0.42,0.87-0.96,0.96-1.63c0.1-0.67-0.05-1.28-0.47-1.83c-0.42-0.54-0.97-0.87-1.63-0.96c-0.67-0.1-1.29,0.04-1.83,0.47
		c-13.32,9.68-34.27,8.9-62.86-2.4c0.96-2.08,2.62-4,5.01-5.81c4.8-3.63,10.98-5.44,18.51-5.44c2.17,0,3.93,0.12,5.29,0.34
		c0.52,0.08,1.04,0,1.53-0.22c0.47-0.24,0.84-0.62,1.09-1.08c11.1-21.52,27.95-33.81,50.61-36.87c0.1-0.02,0.22-0.02,0.34-0.05
		c0.08-0.03,0.17-0.03,0.28-0.03c0.37,0.72,0.79,1.38,1.28,2.02c2.45,3.16,5.81,4.75,10.13,4.75c2.45,0,4.99-1.46,7.59-4.38
		c0.77-0.86,1.43-1.73,2.05-2.59c0.42,0.02,0.81,0.08,1.21,0.12h0.02c0.79,0.08,1.58,0.15,2.4,0.25h0.1c0.03,0,0.03,0,0.05,0.02
		c1.98,0.35,3.93,0.74,5.86,1.18c-0.27,0.3-0.45,0.64-0.52,1.06c-0.15,0.67-0.05,1.29,0.32,1.85c0.37,0.57,0.89,0.94,1.56,1.09
		c0.67,0.13,1.29,0.02,1.86-0.34c1.36-0.87,2.74-1.68,4.13-2.45l0.05-0.03h0.03l0.05-0.05c19.55-10.9,38.67-10.6,57.38,0.84
		c-11.76,2.59-18.36,8.9-19.76,18.91c-0.02,0.1-0.02,0.22-0.05,0.35c-0.07,0.57-0.15,1.16-0.17,1.78c-0.07,0.66,0.12,1.29,0.57,1.8
		c0.45,0.52,1.02,0.79,1.68,0.87c0.37,0.02,0.74-0.03,1.07-0.15c12.68,12.93,21.5,30.12,26.46,51.61h5.07
		c-5.29-23.82-15.12-42.68-29.5-56.54C199.53,88.19,206.7,83.3,219.08,82.06"/>
	<path class="st0" d="M95.07,153.28c2.59,0.52,5.14,1.04,7.64,1.56c0.84,10.15,10.26,20.26,28.22,30.27
		c0.07,0.03,0.17,0.07,0.24,0.12c5.04,2.05,9.15,2.84,12.33,2.35c3.76-0.52,6.4-2.55,7.93-6.08c0.17-0.42,0.22-0.84,0.19-1.26
		c-0.07-0.45-0.22-0.84-0.46-1.19c-3.61-4.85-6.11-9.47-7.49-13.89c24.2,7.37,42.68,15.82,55.46,25.38c2.1,1.58,4.08,3.21,5.88,4.86
		c-10.55,19.85-10.28,35.22,0.84,46.12c0.37,0.37,0.84,0.59,1.36,0.69c0.52,0.08,1.04,0,1.51-0.23c0.47-0.24,0.82-0.59,1.08-1.06
		c9.61-18.41,19.1-28.52,28.47-30.37c9.67-1.7,19.87-1.38,30.59,0.97c0.67,0.15,1.29,0.05,1.85-0.32c0.57-0.37,0.92-0.89,1.09-1.55
		c0.15-0.67,0.05-1.29-0.32-1.85c-10.35-16.41-24.07-27.78-41.14-34.13c-0.77-7.17-1.86-13.96-3.29-20.38H222
		c1.6,7.02,2.82,14.5,3.6,22.44c0.03,0.47,0.21,0.92,0.53,1.29c0.3,0.37,0.67,0.64,1.11,0.81c14.95,5.24,27.23,14.51,36.82,27.78
		c-9.27-1.46-18.14-1.41-26.64,0.1c-10.11,1.56-20.21,11.46-30.27,29.73c-7.14-9.64-6.1-22.74,3.11-39.29
		c0.27-0.49,0.34-1.02,0.27-1.56c-0.08-0.57-0.32-1.04-0.72-1.41c-1.31-1.31-2.72-2.57-4.2-3.81c-1.11-0.94-2.3-1.85-3.51-2.77
		c-13.57-10.21-33.44-19.19-59.58-26.93c-0.22-2.2-0.15-4.33,0.25-6.37h-5.01c-0.42,2.74-0.4,5.56,0.05,8.45l0.08,0.45
		c0.96,5.85,3.76,12.03,8.37,18.53c-0.81,1.11-1.97,1.76-3.43,1.98c-2.47,0.27-5.68-0.37-9.61-1.98
		c-16.61-9.27-25.14-18.41-25.58-27.43"/>
	<path class="st0" d="M145.29,141.59c-0.57-0.37-1.19-0.49-1.85-0.32c-0.67,0.15-1.19,0.52-1.53,1.09c-0.84,1.31-1.56,2.65-2.13,4
		c-1.01,2.25-1.68,4.55-2.02,6.92h5.01c0.32-1.68,0.82-3.32,1.53-4.92v-0.02c0.07-0.17,0.12-0.32,0.2-0.47
		c0.47-0.96,0.99-1.93,1.58-2.87c0.37-0.59,0.47-1.21,0.32-1.88C146.23,142.46,145.86,141.94,145.29,141.59"/>
	<path class="st1" d="M141.46,74.95h-0.1c-0.81-0.1-1.6-0.17-2.4-0.25h-0.02c-0.4-0.04-0.79-0.1-1.21-0.12
		c-0.62,0.87-1.29,1.73-2.05,2.6c-2.59,2.92-5.14,4.38-7.59,4.38c-4.32,0-7.68-1.58-10.13-4.74c-0.5-0.65-0.92-1.31-1.29-2.03
		c-0.1,0-0.2,0-0.27,0.02c-0.13,0.03-0.25,0.03-0.34,0.05c-22.66,3.07-39.51,15.35-50.61,36.87c-0.25,0.47-0.62,0.84-1.09,1.08
		c-0.5,0.22-1.02,0.3-1.53,0.22c-1.36-0.22-3.11-0.35-5.29-0.35c-7.54,0-13.72,1.8-18.51,5.44c-2.39,1.81-4.05,3.73-5.01,5.81
		c28.59,11.3,49.54,12.09,62.87,2.4c0.54-0.42,1.16-0.57,1.83-0.47c0.67,0.1,1.21,0.42,1.63,0.96c0.42,0.54,0.57,1.16,0.47,1.83
		c-0.09,0.67-0.42,1.21-0.96,1.63c-14.16,10.85-36.37,10.38-66.62-1.36c0.99,4.13,6.72,7.71,17.22,10.8
		c6.33,1.86,13,3.21,20.02,4.13c0.02,0,0.05,0,0.08,0.03c2.45,0.39,4.84,0.79,7.22,1.19c5.66-0.77,12.43-1.43,20.31-1.98
		c2.27-0.17,4.69-0.22,7.26-0.2c0.22-0.42,0.44-0.82,0.69-1.21c0.47-0.81,1.02-1.61,1.6-2.42c0.4-0.57,0.94-0.89,1.61-0.99
		c0.67-0.1,1.28,0.05,1.83,0.47c0.57,0.4,0.89,0.94,0.99,1.61c0.1,0.67-0.05,1.28-0.44,1.83c-0.5,0.66-0.94,1.36-1.36,2.05
		c-1.7,2.84-2.59,5.71-2.64,8.55v0.08c0.17,9.14,8.72,18.43,25.6,27.87c3.93,1.61,7.14,2.25,9.61,1.98
		c1.46-0.23,2.62-0.87,3.44-1.98c-4.62-6.5-7.42-12.68-8.38-18.53l-0.08-0.45c-0.82-5.41-0.17-10.53,1.98-15.37
		c0.57-1.36,1.29-2.69,2.13-4c0.34-0.57,0.86-0.94,1.53-1.09c0.67-0.17,1.29-0.05,1.85,0.32c0.57,0.34,0.94,0.86,1.11,1.53
		c0.15,0.67,0.05,1.29-0.32,1.88c-0.59,0.94-1.11,1.91-1.58,2.87c0.1,0.03,0.19,0.03,0.3,0.05c19.35,4.05,33.16,9.22,41.49,15.47
		c7.24,5.44,13.67,14.09,19.33,25.97c1.48,1.24,2.89,2.5,4.2,3.81c0.4,0.37,0.64,0.84,0.72,1.41c0.07,0.54,0,1.07-0.27,1.55
		c-9.21,16.56-10.26,29.66-3.12,39.3c10.06-18.26,20.17-28.17,30.28-29.73c8.5-1.51,17.37-1.55,26.64-0.1
		c-9.59-13.27-21.87-22.53-36.82-27.77c-0.45-0.18-0.82-0.45-1.11-0.82c-0.32-0.37-0.5-0.81-0.52-1.28
		c-3.19-32.17-13.22-56.86-30.08-74.04c-0.32,0.12-0.69,0.17-1.06,0.15c-0.67-0.08-1.23-0.34-1.68-0.87
		c-0.44-0.52-0.64-1.14-0.57-1.8c0.02-0.62,0.1-1.21,0.17-1.78c0.03-0.12,0.03-0.24,0.05-0.34c1.41-10.01,8.01-16.31,19.77-18.91
		c-18.7-11.44-37.83-11.74-57.38-0.84l-0.05,0.05h-0.02l-0.05,0.02c-1.38,0.77-2.77,1.58-4.12,2.45c-0.57,0.37-1.19,0.47-1.86,0.34
		c-0.67-0.14-1.19-0.52-1.56-1.09c-0.37-0.57-0.47-1.19-0.32-1.85c0.07-0.42,0.25-0.77,0.52-1.06c-1.93-0.44-3.88-0.84-5.86-1.18
		C141.49,74.95,141.49,74.95,141.46,74.95 M79.38,121.45c-2.45-2.42-3.66-5.36-3.66-8.82c0-3.46,1.21-6.4,3.66-8.82
		c2.42-2.45,5.36-3.66,8.82-3.66c3.46,0,6.4,1.21,8.82,3.66c2.45,2.42,3.66,5.36,3.66,8.82c0,3.46-1.21,6.4-3.66,8.82
		c-2.42,2.45-5.36,3.66-8.82,3.66C84.74,125.11,81.8,123.9,79.38,121.45"/>
	<path class="st2" d="M144.8,147.92c-0.1-0.02-0.2-0.02-0.3-0.05c-0.08,0.15-0.13,0.3-0.2,0.47v0.02c-1.61,3.59-2.2,7.34-1.78,11.29
		c26.14,7.74,46.01,16.73,59.58,26.93c1.21,0.92,2.4,1.83,3.51,2.77c-5.66-11.88-12.08-20.53-19.33-25.97
		C177.96,157.14,164.15,151.97,144.8,147.92"/>
	<path class="st2" d="M102.91,149.82c0.37-2.32,1.19-4.64,2.42-6.94c-2.57-0.03-4.99,0.02-7.27,0.19
		c-7.88,0.54-14.65,1.21-20.31,1.98C86.52,146.56,94.93,148.17,102.91,149.82"/>
	<path class="st3" d="M75.72,112.63c0,3.46,1.21,6.4,3.66,8.82c2.42,2.45,5.36,3.66,8.82,3.66c3.46,0,6.4-1.21,8.82-3.66
		c2.45-2.42,3.66-5.37,3.66-8.82c0-3.46-1.21-6.4-3.66-8.82c-2.42-2.45-5.36-3.66-8.82-3.66c-3.46,0-6.4,1.21-8.82,3.66
		C76.93,106.23,75.72,109.17,75.72,112.63"/>
	<path class="st4" d="M83.78,117.05c1.21,1.21,2.69,1.83,4.42,1.83c1.73,0,3.21-0.62,4.42-1.83c1.21-1.21,1.83-2.7,1.83-4.42
		c0-1.73-0.62-3.21-1.83-4.42c-1.21-1.21-2.69-1.83-4.42-1.83c-1.73,0-3.21,0.61-4.42,1.83c-1.21,1.21-1.83,2.69-1.83,4.42
		C81.95,114.36,82.57,115.84,83.78,117.05"/>
</g>
</svg>
