<svg id="Layer_1" data-name="Layer 1" xmlns="http://www.w3.org/2000/svg" viewBox="0 0 300 300"><defs><style>.cls-1{fill:#991f21;}.cls-2{fill:#e65351;}.cls-3{fill:#638a7f;}.cls-4{fill:#a9c0b9;}.cls-5{fill:#d2deda;}.cls-6{fill:#ebeaea;}.cls-7{fill:#111;}.cls-8{fill:#fff;}.cls-9{fill:#fbed1f;}.cls-10,.cls-12,.cls-14,.cls-9{stroke:#8c673b;}.cls-10,.cls-11,.cls-12,.cls-14,.cls-9{stroke-linecap:round;stroke-linejoin:round;}.cls-10,.cls-11,.cls-14,.cls-9{stroke-width:1.66px;}.cls-10,.cls-12{fill:#e1d2bd;}.cls-11{fill:#020202;stroke:#020202;}.cls-12{stroke-width:1.77px;}.cls-13{fill:#e9ddd0;}.cls-14{fill:none;}.cls-15{fill:#8c673b;}.cls-16,.cls-20,.cls-21{fill:#ffbf3c;}.cls-17{fill:#a1522d;}.cls-18{fill:#f5333f;}.cls-19{fill:#a73439;}.cls-20,.cls-21{stroke:#a0522e;}.cls-20{stroke-width:1.46px;}.cls-21{stroke-width:1.39px;}.cls-22{fill:#bb6125;}.cls-23{fill:#6a3f24;}.cls-24{fill:#151515;}</style></defs><path class="cls-1" d="M101.84,176.24a26.19,26.19,0,0,0,33.12,0q7-6.06,7-14.6T135,147a26.19,26.19,0,0,0-33.12,0q-7.08,6.06-7,14.61t7,14.6M99,161.64a14.56,14.56,0,0,1,5.56-11.4,22,22,0,0,1,27.62,0,14.49,14.49,0,0,1,0,22.79,22,22,0,0,1-27.62,0A14.54,14.54,0,0,1,99,161.64"/><path class="cls-2" d="M104.59,173a14.46,14.46,0,0,1,0-22.79,22,22,0,0,1,27.62,0,14.49,14.49,0,0,1,0,22.79,22,22,0,0,1-27.62,0"/><path class="cls-3" d="M25.28,171a2,2,0,0,1-.54,1.52Q13.73,184.71,18,207a2,2,0,0,1-.34,1.58,2,2,0,0,1-1.33.89,2.08,2.08,0,0,1-1.59-.32,2,2,0,0,1-.89-1.35q-4.74-24.74,7.72-38.2a2,2,0,0,1,1.46-.69,2,2,0,0,1,1.52.55,2,2,0,0,1,.69,1.48"/><path class="cls-3" d="M13.55,206.42a3.93,3.93,0,0,0-1.18,2.86,4,4,0,0,0,1.21,2.89l0,0a4,4,0,0,0,2.88,1.19,3.86,3.86,0,0,0,2.85-1.19l0,0a4,4,0,0,0,1.23-2.89,3.88,3.88,0,0,0-1.21-2.86s0,0,0,0a3.89,3.89,0,0,0-2.83-1.14,3.91,3.91,0,0,0-2.85,1.14s0,0,0,0m3.05,2.86c-.06.11-.09.15-.06.12v0s0,0-.11,0l-.11,0,0,0s0,0,0-.12a.36.36,0,0,1,.06-.11l.11-.06a.18.18,0,0,1,.08.06.35.35,0,0,1,.09.11"/><path class="cls-3" d="M35.64,95.14Q18.3,114.07,17.85,154.36,17.4,195,28.12,204.42q7.12,6.84,30.75,6.49,26.13-.42,61.51-2.18,18.85-.91,27.16-13.21,8.31-11.9,6.23-34.75a1.88,1.88,0,0,0-.72-1.4,2,2,0,0,0-1.5-.52q-26.06,1.43-36.4-9.56-9.27-10.42-5.15-31.72c5.6,3.61,10.59,5.58,15,5.85A15.27,15.27,0,0,0,138.15,118q20.92-6.18,27.48-10.17a2.06,2.06,0,0,0,.89-1.06,2,2,0,0,0,0-1.39,2.09,2.09,0,0,0-.82-1.1Q142,88.13,122.15,75.17a1.87,1.87,0,0,0-1.12-.34q-15.69-.14-28.91-.13c-.78,0-1.46,0-2.07,0h-.13Q52.92,76,35.64,95.14M90.07,78.91c.61,0,1.31,0,2.05,0q13,0,28.24.12,18.42,12,40.07,26.72-7.43,3.42-24.07,8.33a2.33,2.33,0,0,0-1,.68,11.47,11.47,0,0,1-10.06,4.44c-4.4-.38-9.53-2.69-15.43-6.9a2.14,2.14,0,0,0-1.31-.4,2.06,2.06,0,0,0-1.27.49,2.08,2.08,0,0,0-.72,1.16q-6.06,26.25,5.52,38.57,10.82,12,37.69,11c.9,13-1,23-5.69,29.95q-7.38,10.56-23.88,11.37-35.29,1.75-61.36,2.18Q37.5,207,31,201.31l0,0q-9.28-8.91-8.9-46.88.41-38.34,16.7-56.42,16.4-17.85,51.17-19.08h.13Z"/><path class="cls-4" d="M89.94,78.91h.13c.61,0,1.31,0,2.05,0,8.64,0,20-.21,30.24-.13,12.28,8,23.64,17.14,38.07,27q-7.43,3.42-24.07,8.33a2.33,2.33,0,0,0-1,.68,11.47,11.47,0,0,1-10.06,4.44c-4.4-.38-9.53-2.69-15.43-6.9a2.14,2.14,0,0,0-1.31-.4,2.06,2.06,0,0,0-1.27.49,2.08,2.08,0,0,0-.72,1.16q-6,26.25,5.52,38.57,10.82,12,37.69,11,1.37,19.53-5.69,29.95-7.38,10.56-23.88,11.37-35.29,1.75-61.36,2.18Q37.5,207,31,201.31l0,0q-9.28-8.91-8.9-46.88.41-38.34,16.7-56.42,16.4-17.85,51.17-19.08"/><path class="cls-3" d="M47.9,221.54a2.23,2.23,0,0,0,.78.86,2.07,2.07,0,0,0,1.12.32H79a2.18,2.18,0,0,0,1.1-.29,2.13,2.13,0,0,0,.78-.85,1.82,1.82,0,0,0,.21-1.14l-.55-6.89v-6.79a2.15,2.15,0,0,0-2.11-2.11,1.92,1.92,0,0,0-1.22.4.75.75,0,0,0-.27.23,2,2,0,0,0-.62,1.48v3.64a6.94,6.94,0,0,0-1.52-.17,9.67,9.67,0,0,0-7.74,3.3,3.09,3.09,0,0,0-.23.25c-1.82-1.67-4.36-2.49-7.59-2.49a14,14,0,0,0-6.79,1.37v-6a1.9,1.9,0,0,0-.62-1.35,2,2,0,0,0-1.49-.63,2.08,2.08,0,0,0-1.5.63,2,2,0,0,0-.61,1.48v8.67l-.53,5a2.36,2.36,0,0,0,.21,1.15m28.18-6.79.33.19.28,3.55H69.33a4.87,4.87,0,0,0-.06-.76,6.8,6.8,0,0,1,1-1.39,5.9,5.9,0,0,1,4.57-1.89,3,3,0,0,1,1.29.3M64.2,217.1a3.93,3.93,0,0,1,.52.59c-.08.25-.17.53-.23.8H53.14a3.4,3.4,0,0,1,.07-.34s0,0,0,0a2.4,2.4,0,0,1,.51-1.05v0c1-1,2.81-1.53,5.49-1.53a7.2,7.2,0,0,1,5,1.59"/><path class="cls-5" d="M74.79,214.46a3,3,0,0,1,1.29.29l.33.19.28,3.55H69.33a5,5,0,0,0-.06-.76,6.8,6.8,0,0,1,1-1.39,5.9,5.9,0,0,1,4.57-1.88"/><path class="cls-5" d="M64.2,217.1a3.93,3.93,0,0,1,.52.59c-.08.25-.17.53-.23.8H53.14a3.4,3.4,0,0,1,.07-.34s0,0,0,0a2.4,2.4,0,0,1,.51-1.05v0c1-1,2.81-1.53,5.49-1.53a7.2,7.2,0,0,1,5,1.59"/><path class="cls-4" d="M67.05,213.53a2,2,0,0,0-.23.25c-1.82-1.67-4.36-2.49-7.59-2.49a14.05,14.05,0,0,0-6.79,1.37v-6l24.76-1.58a.75.75,0,0,0-.27.23,2,2,0,0,0-.62,1.48v3.64a6.94,6.94,0,0,0-1.52-.17,9.67,9.67,0,0,0-7.74,3.3"/><path class="cls-3" d="M123.29,210.82a7.45,7.45,0,0,0-1.52-.17A9.69,9.69,0,0,0,114,214l-.24.25c-1.81-1.67-4.35-2.49-7.58-2.49a14,14,0,0,0-6.79,1.37v-8a1.94,1.94,0,0,0-.63-1.39,2,2,0,0,0-1.48-.64,2.07,2.07,0,0,0-1.5.64,2.05,2.05,0,0,0-.62,1.47v10.68l-.52,5a2.23,2.23,0,0,0,.21,1.14,2.19,2.19,0,0,0,.78.87,2.15,2.15,0,0,0,1.12.31H126a2.2,2.2,0,0,0,1.1-.29,2.13,2.13,0,0,0,.78-.85,2,2,0,0,0,.21-1.14l-.55-6.89V203.91a2.15,2.15,0,0,0-2.11-2.11,2.06,2.06,0,0,0-1.5.63,2,2,0,0,0-.62,1.48v6.91Zm.38,8.1h-7.35a5.09,5.09,0,0,0-.06-.77,6.68,6.68,0,0,1,.95-1.39,5.86,5.86,0,0,1,4.56-1.88,2.91,2.91,0,0,1,1.29.3,2.74,2.74,0,0,1,.34.19Zm-23.54,0c0-.13.05-.24.06-.34s0,0,0-.05a2.64,2.64,0,0,1,.51-1.05v0c1-1,2.81-1.52,5.5-1.52a7.14,7.14,0,0,1,5,1.58,4.7,4.7,0,0,1,.53.59c-.07.26-.15.53-.23.81Z"/><path class="cls-5" d="M123.06,215.18a2.17,2.17,0,0,1,.34.19l.27,3.55h-7.35a4.08,4.08,0,0,0-.07-.77,7.12,7.12,0,0,1,1-1.39,5.88,5.88,0,0,1,4.56-1.88,2.88,2.88,0,0,1,1.29.3"/><path class="cls-5" d="M111.71,218.11c-.06.26-.15.53-.23.8H100.13c0-.12.05-.23.06-.33s0,0,0-.05a2.64,2.64,0,0,1,.51-1.05v0c1-1,2.81-1.52,5.5-1.52a7.15,7.15,0,0,1,5,1.58,4.7,4.7,0,0,1,.53.59"/><path class="cls-4" d="M123.29,210.82a7.45,7.45,0,0,0-1.52-.17A9.69,9.69,0,0,0,114,214c-.06.07-.15.15-.24.26-1.81-1.68-4.35-2.5-7.58-2.5a14,14,0,0,0-6.79,1.37v-8L123.29,204Z"/><path class="cls-3" d="M120.56,79.16l-.72.06a2,2,0,0,1-1.54-.5,2.14,2.14,0,0,1-.74-1.44,2,2,0,0,1,.51-1.52,2,2,0,0,1,1.44-.74q51.36-4.22,68.76,31.83,17.17,35.1,9.1,112.23a1.92,1.92,0,0,1-.68,1.33,2,2,0,0,1-1.41.56H171.56a2.1,2.1,0,0,1-1.14-.34,2.08,2.08,0,0,1-.78-.91,2.12,2.12,0,0,1-.17-1.19q3.78-25.32,1-55.84-2.67-29.5-14-37.83-11.13-8-19.57-6.64a2.16,2.16,0,0,1-1.58-.36,2.1,2.1,0,0,1-.87-1.37,2,2,0,0,1,.36-1.57,2.06,2.06,0,0,1,.89-.74,2,2,0,0,1,.46-.12q9.86-1.87,22.77,7.35,12.79,8.85,15.7,40.9,2.7,29.58-.68,54.43h19.36q7.53-74.07-8.89-108-16.34-33.19-63.9-29.55"/><path class="cls-4" d="M134.59,113c-.15,0,.15-.07,0,0L116,78.89c32.49-3.63,58.36,6.94,68.36,28.59,12.08,26.16,14.21,59.55,9.09,109.68H173.67q3.45-25.2.68-55.26c-2-21.69-9.13-36.29-17.93-42.16-7.94-5.29-14.41-5.53-21.35-6.83"/><path class="cls-6" d="M106.17,82.18a13.44,13.44,0,1,1-9.53,3.94,13,13,0,0,1,9.53-3.94"/><path class="cls-7" d="M106.17,88.91a6.78,6.78,0,1,1-4.75,2,6.43,6.43,0,0,1,4.75-2"/><path class="cls-3" d="M186.79,172.39a2,2,0,0,1,.61-1.47,2,2,0,0,1,1.5-.64h8.46a2,2,0,0,1,1.48.64,2,2,0,0,1,.63,1.47,2.12,2.12,0,0,1-2.11,2.12H188.9a2.08,2.08,0,0,1-2.11-2.12"/><path class="cls-3" d="M182.85,205a2.06,2.06,0,0,1,.62-1.48,2,2,0,0,1,1.5-.64h11.41a2,2,0,0,1,1.48.64,2,2,0,0,1,.63,1.48,2.08,2.08,0,0,1-.63,1.5,2,2,0,0,1-1.48.61H185a2.11,2.11,0,0,1-1.5-.61,2.15,2.15,0,0,1-.62-1.5"/><path class="cls-3" d="M184.68,188.06a2,2,0,0,1,.61-1.48,2,2,0,0,1,1.5-.64h10.15a2.19,2.19,0,0,1,2.11,2.12,2.13,2.13,0,0,1-2.11,2.11H186.79a2.13,2.13,0,0,1-1.5-.61,2.1,2.1,0,0,1-.61-1.5"/><path class="cls-3" d="M60.16,84.36a2.75,2.75,0,0,1-.7,0Q32,81.61,19.56,92.23,7.49,102.94,10,127q2.55,23.76,18.1,28.94,16.29,5,46.3-9.15a1.58,1.58,0,0,1,.43-.15,1.84,1.84,0,0,1,1.18.06,2,2,0,0,1,1.21,1.11,2,2,0,0,1,.08,1.6,2.2,2.2,0,0,1-1.1,1.21Q44.27,165.71,26.85,160q-18.14-5.55-21-32.53Q3,100.79,16.79,89,30.2,77.18,59.89,80.2A2,2,0,0,1,61.3,81a1.93,1.93,0,0,1,.46,1.54A2.15,2.15,0,0,1,61,83.94a2.18,2.18,0,0,1-.85.42"/><path class="cls-4" d="M59.46,84.4a2.75,2.75,0,0,0,.7,0l14.69,62.29a1.7,1.7,0,0,0-.43.15Q44.4,161,28.12,156,12.55,150.78,10,127q-2.56-24,9.54-34.79Q32,81.6,59.46,84.4"/><path class="cls-7" d="M108.37,110.7a2.05,2.05,0,0,0-1.18.61,2,2,0,0,0-.59,1.16l-2.52,16.72a2,2,0,0,0,.34,1.5,2.31,2.31,0,0,0,1.27.89q21.72,5.13,33.86-2.24,12.47-7.26,15.13-27.16a2.12,2.12,0,0,0-2.56-2.35,2.18,2.18,0,0,0-1.14.68q-18.82,22-41.32,10.42a2,2,0,0,0-1.29-.23m2,5.26q20.84,9.39,38.76-7.35-3.25,11.94-11.71,17.1-10.48,6.11-28.83,2.17L110.34,116"/><path class="cls-8" d="M108.56,127.88,110.34,116q20.84,9.39,38.76-7.35-3.25,11.94-11.71,17.1-10.48,6.11-28.83,2.17"/><path class="cls-9" d="M263,164.52s4.59-12.44,16.34-12.37c-7.59,6.36-8.91,13.94-8.91,13.94Z"/><path class="cls-9" d="M260.91,162.86s-6.2-11.72-17.83-10.1c8.37,5.3,10.68,12.64,10.68,12.64Z"/><polyline class="cls-10" points="250.62 224.93 249.84 217.03 258.75 216.23 259.55 224.72"/><polyline class="cls-10" points="221.22 225.25 220.45 217.36 229.35 216.56 230.15 225.05"/><polygon class="cls-11" points="221.22 225.25 221.85 231.65 232.62 231.68 230.15 225.05 221.22 225.25"/><path class="cls-10" d="M214.11,190.84l-5.37-4.57s-4.57,5.37,0,7.87l4.54,2.5Z"/><polygon class="cls-11" points="250.62 224.93 251.25 231.32 262.01 231.35 259.55 224.72 250.62 224.93"/><path class="cls-12" d="M293.75,165.66l-23.83-.09s5.51,7.73,12.11,7.71C292.24,173.26,293.75,165.66,293.75,165.66Z"/><path class="cls-10" d="M257.39,187l-32.92-.72s-13-1.08-13.48,9.48,2.62,24.65,2.62,24.65h3.52l-.4-8.08,3.29,7.46,14.91.25.23-8.07,2.67,8.5,3.72-.2-.18-8.69,3.5,9.12,21.52-.15,1.11-21.73Z"/><path class="cls-10" d="M261.61,160.35s15.6-1.5,16.3,15.13c-.21.21,17.47,1.18,16.73,15.6,0,0,0,7.66-11.63,11.15-.42.41-.63,2.69,1.42,8.7-8.07,0-10.12-7.9-10.12-7.9s-14.9-1.08-20.24-13.72-2.85-17.19-2.85-17.19-2.08,2.68-8.49,2.45S232,165.23,232,165.23l19.46.5S253.63,160.66,261.61,160.35Z"/><path class="cls-8" d="M257.3,170.88a4.47,4.47,0,1,0,4.48-4.46A4.45,4.45,0,0,0,257.3,170.88Z"/><path d="M260,170.76a2,2,0,1,0,2-2A2,2,0,0,0,260,170.76Z"/><path class="cls-8" d="M267,170.7a4.35,4.35,0,1,0,4.36-4.33A4.36,4.36,0,0,0,267,170.7Z"/><path class="cls-13" d="M278.09,176.51a106.72,106.72,0,0,0-26.4,1.71c1.86,11.36,6.14,21.06,23.11,24.05,0,0,2.46,7.33,8.26,7.9.13.13-1.77-7.33-.94-8.15l1.65-.82c1.11-.55,10-3.94,10.06-11.11C294,182.67,287.58,177.86,278.09,176.51Z"/><path d="M269.58,170.58a1.94,1.94,0,1,0,1.94-1.92A1.93,1.93,0,0,0,269.58,170.58Z"/><path class="cls-14" d="M286.78,191.75s.31,6.28-8.19,6.65c-8.17.35-8.9-6.51-8.9-6.51"/><path class="cls-15" d="M274.92,185.9c0,1.16.31,2.11.7,2.11s.71-.94.71-2.11-.31-2.11-.7-2.11S274.92,184.73,274.92,185.9Z"/><path class="cls-15" d="M279.59,186c0,1.17.31,2.12.7,2.12s.7-.95.71-2.11-.31-2.12-.7-2.12S279.59,184.86,279.59,186Z"/><path class="cls-16" d="M242,124.28a4.49,4.49,0,0,0-4.5,4.49v5.38c-3.5.41-6.17,2.65-6.17,5.35a4.91,4.91,0,0,0,2.39,4s7.81.2,8.28.2c2.49,0,4.5.06,4.5-2.43V128.77A4.49,4.49,0,0,0,242,124.28Z"/><path class="cls-16" d="M274.64,123.53c-1-1.21-1-1.22-8-8.09l-11,4s.09,8.63,12,11.19v3.48h-.25c-4.05,0-7.33,2.42-7.33,5.41a4.9,4.9,0,0,0,2.39,4l9.69.21c2.49,0,4.51.05,4.51-2.43,0,0,0-12.68,0-12.78s0-.11,0-.17C276.76,127.17,276.31,125.53,274.64,123.53Z"/><path class="cls-17" d="M246.49,128.1a.67.67,0,0,0-.67.67v12.49a1.67,1.67,0,0,1-.37,1.22c-.55.54-1.82.54-3.3.54H242l-8-.2a4.23,4.23,0,0,1-2-3.32c0-2.3,2.4-4.31,5.58-4.68a.68.68,0,0,0,.59-.67l-.09-6.48a.62.62,0,0,0-.25-.51l-1.15-.88.1,4.63,0,2.69c-3.64.64-6.16,3-6.16,5.9a5.6,5.6,0,0,0,2.68,4.55.76.76,0,0,0,.36.11h.12l8.18.19h.16c1.78,0,3.31,0,4.25-.93a2.94,2.94,0,0,0,.76-2.17V128.77A.67.67,0,0,0,246.49,128.1Z"/><path class="cls-17" d="M277.34,128.44c0-.12,0-.24,0-.37a7.9,7.9,0,0,0-2.19-5c-.16-.2-.46-.52-.9-1l-1.57-1.61a8.06,8.06,0,0,0,.89-2.57,16.91,16.91,0,0,0,.25-2.91c0-.58,0-1.1-.07-1.49q0-.3-.06-.51a1.93,1.93,0,0,0-.09-.33.63.63,0,0,0-.6-.39.67.67,0,0,0-.68.68.69.69,0,0,0,0,.2.65.65,0,0,1,0,.18,13.86,13.86,0,0,1,.08,1.61,15.63,15.63,0,0,1-.23,2.81,5.62,5.62,0,0,1-.93,2.39.68.68,0,0,0-.15.42.67.67,0,0,0,.2.47c.77.78,1.39,1.41,1.84,1.89s.78.82.93,1a6.65,6.65,0,0,1,1.88,4.1c0,.1,0,.18,0,.27h0v.08h0v.16h0V130c0,2.61,0,8.05,0,11.29a2.53,2.53,0,0,1-.09.74,1.2,1.2,0,0,1-.28.47,2.1,2.1,0,0,1-1.18.46,14.11,14.11,0,0,1-1.93.08h-.35l-4.49-.09-5-.1a4.22,4.22,0,0,1-2-3.33,4.15,4.15,0,0,1,1.92-3.32,8.19,8.19,0,0,1,4.74-1.42h.25a.67.67,0,0,0,.47-.19h0a.68.68,0,0,0,.21-.48v-3.48a.67.67,0,0,0-.54-.66c-5.67-1.22-8.52-3.78-10-6.07a9.24,9.24,0,0,1-1.52-4.47.66.66,0,0,0-.67-.66h0a.66.66,0,0,0-.66.67h0a8,8,0,0,0,.23,1.51,12,12,0,0,0,2.88,5.36,17,17,0,0,0,8.92,4.83v2.31a9.28,9.28,0,0,0-5.27,1.79,5.43,5.43,0,0,0-2.31,4.27,5.58,5.58,0,0,0,2.68,4.55h0a.77.77,0,0,0,.36.12h0l4.82.1,4.89.09h.34a15,15,0,0,0,2.29-.11,3.2,3.2,0,0,0,1.79-.82,2.66,2.66,0,0,0,.58-.94,3.82,3.82,0,0,0,.18-1.22c0-4.59,0-12.16,0-12.75Z"/><path class="cls-18" d="M226.34,109.68c-.43,2.38-2.2,4.21-3.77,3.84s-2.39-2.58-1.83-4.93,5.17-7.72,9-6C231.23,103.21,227.27,104.46,226.34,109.68Z"/><path class="cls-19" d="M228.94,104.76a1.33,1.33,0,0,0,0-.57l-.08-.3-.24.19a9.36,9.36,0,0,0-3,5.48,4.56,4.56,0,0,1-1.76,3,1.52,1.52,0,0,1-1.17.28,1.56,1.56,0,0,1-1-.77,4.59,4.59,0,0,1-.36-3.33,10.26,10.26,0,0,1,4.72-5.28,6.14,6.14,0,0,1,2.55-.57h.19v-.19c0-.09,0-.17,0-.25a2.46,2.46,0,0,1,.08-.59l.08-.24-.26,0a7,7,0,0,0-3.28.64c-2.58,1.29-5,4.33-5.44,6.18-.65,2.77.38,5.29,2.35,5.76a2.88,2.88,0,0,0,2.23-.48A6,6,0,0,0,227,109.8a9.77,9.77,0,0,1,1.92-4.31l.08-.1,0-.11A.84.84,0,0,1,228.94,104.76Z"/><path class="cls-20" d="M239.9,102.89l.23-.23a7.91,7.91,0,0,0,1.78-4.58,15.54,15.54,0,0,0,8.69-14.3c0-8.54-6.3-15.46-14.07-15.46-5.65,0-10.87,3.13-14.25,7.86a18.61,18.61,0,0,1-9.74,7.3c-7.55,2.66-8.78,7.14-8.64,13.23.08,3.81,5.27,9,13.92,8,4.33-.52,8.26-3.75,10.89-7.42.34,3.64.61,8.18,0,9,.63.58,2.4.46,4.4-.07l0,.1a21.18,21.18,0,0,1,7-2.56C240.07,103.46,240,103.16,239.9,102.89Z"/><path class="cls-21" d="M280.17,97.21c-1.19-4.43-3.89-3.76-3.79.4a9.66,9.66,0,0,1-5.16,9,14.59,14.59,0,0,0-6.2-1.46c-5.84,0-4.65,2.46-14.17,2.86a87,87,0,0,0-11.34,1.16,52.38,52.38,0,0,0-1-5.72c-2.22.38-3.52,1.88-5.43,2.93l.81,5.13s-.92,9.17,1.35,13.17c4.89,8.61,26.29,7.1,30.94,3.45,6.43,0,12.12-3.35,12.34-11.1a9.72,9.72,0,0,0-1.53-5.42C281.91,107,281,100.34,280.17,97.21Z"/><path d="M211.8,90.82c-.13,3-3.06,5.35-6.55,5.21s-6.22-2.72-6.09-5.74,3.06-5.36,6.55-5.21S211.92,87.79,211.8,90.82Z"/><path class="cls-8" d="M235,81.7a5.42,5.42,0,1,1-5.42-5.42A5.42,5.42,0,0,1,235,81.7Z"/><path class="cls-16" d="M245.13,125.26a4.81,4.81,0,0,0-4.82,4.81v5.75c-3.74.44-6.59,2.83-6.59,5.72a5.24,5.24,0,0,0,2.55,4.27s8.36.22,8.86.22c2.66,0,4.81.06,4.81-2.6V130.07A4.81,4.81,0,0,0,245.13,125.26Z"/><path class="cls-16" d="M280.25,124.45c-1.08-1.29-1.08-1.29-8.54-8.65l-11.8,4.33s.1,9.22,12.88,12v3.73h-.27c-4.34,0-7.85,2.6-7.85,5.79a5.28,5.28,0,0,0,2.56,4.28s9.87.21,10.37.21c2.66,0,4.82.06,4.82-2.6,0,0,0-13.56,0-13.66a1.1,1.1,0,0,1,0-.18C282.52,128.35,282,126.6,280.25,124.45Z"/><polygon class="cls-16" points="234.72 109.64 231.93 100.95 238.68 97.16 242.15 109.14 237.69 110.97 234.72 109.64"/><path class="cls-22" d="M251.7,87.07c1.2,4.59,5.11,8.41,4.38,14.62-.66,5.61-4.36,10.23-9.74,10.23s-9.2-4.37-9.74-10c-.86-8.77,5.57-27.4,11-27.4C250,75.68,250.17,81.29,251.7,87.07Z"/><path class="cls-17" d="M249.94,129.35a.73.73,0,0,0-.72.72v13.36a1.8,1.8,0,0,1-.39,1.3c-.58.58-2,.58-3.53.58h-.17c-.42,0-6.58-.16-8.6-.21a4.52,4.52,0,0,1-2.09-3.56c0-2.45,2.56-4.6,6-5a.72.72,0,0,0,.63-.72l-.09-6.92a.67.67,0,0,0-.27-.55l-1.25-.52c-1.44-1.1-1.8,0-.23,1.19,0,0,.19.14.32.24l0,3.1,0,2.87c-3.89.69-6.59,3.26-6.59,6.31a6,6,0,0,0,2.87,4.87.81.81,0,0,0,.38.12h.13l8.75.2h.17c1.9,0,3.54,0,4.54-1a3,3,0,0,0,.82-2.31V130.07A.72.72,0,0,0,249.94,129.35Z"/><path class="cls-17" d="M283.13,129.71c0-.13,0-.26,0-.4,0-1.25-.48-3.07-2.35-5.32-.17-.2-.49-.55-1-1l-1.68-1.72a8.61,8.61,0,0,0,.95-2.75c.2-1.08-1.24-1.18-1.43-.16a5.92,5.92,0,0,1-1,2.56.73.73,0,0,0-.15.44.71.71,0,0,0,.21.51c.82.83,1.48,1.5,2,2s.83.88,1,1.07c1.65,2,2,3.45,2,4.39a1.32,1.32,0,0,1,0,.28h0v.09h0v.1h0v.06h0c0,.05,0,.65,0,1.57v12.07a2.56,2.56,0,0,1-.1.8,1.16,1.16,0,0,1-.29.5,2.2,2.2,0,0,1-1.26.49,14.46,14.46,0,0,1-2.07.09h-.37c-.22,0-2.47,0-4.81-.1l-5.31-.11a4.08,4.08,0,0,1,0-7.11,8.7,8.7,0,0,1,5.06-1.52h.28a.75.75,0,0,0,.5-.21h0a.75.75,0,0,0,.22-.51v-3.73a.72.72,0,0,0-.57-.7c-6.07-1.3-9.12-4-10.68-6.5a9.88,9.88,0,0,1-1.63-4.77.71.71,0,0,0-.72-.71h0a.71.71,0,0,0-.71.72h0a8.29,8.29,0,0,0,.25,1.62,12.87,12.87,0,0,0,3.08,5.73,18.2,18.2,0,0,0,9.55,5.17v2.47a10.05,10.05,0,0,0-5.64,1.91A5.8,5.8,0,0,0,264,141.6a6,6,0,0,0,2.86,4.87h0a.69.69,0,0,0,.39.12h0l5.16.11,5.23.11H278a14.62,14.62,0,0,0,2.45-.13,3.38,3.38,0,0,0,1.91-.87,2.7,2.7,0,0,0,.61-1,3.86,3.86,0,0,0,.2-1.32c0-4.9,0-13,0-13.63Z"/><path class="cls-23" d="M254.25,91.38l-.4-.82a.21.21,0,0,0-.22-.12l-1,.2a.21.21,0,0,0-.15.1.21.21,0,0,0,0,.19L253,92c1.22,2.46,2.48,5,2.48,8.16a14.21,14.21,0,0,1-.08,1.44c-.67,5.65-4.39,9.6-9,9.6s-8.51-3.84-9-9.35c-.05-.5-.08-1.06-.08-1.64a32.81,32.81,0,0,1,.65-6,.19.19,0,0,0-.07-.19.17.17,0,0,0-.19,0c-.4.12-.77.25-1.12.37a.21.21,0,0,0-.13.16,29.25,29.25,0,0,0-.47,7.52c.61,6.26,4.9,10.62,10.45,10.62,5.4,0,9.69-4.46,10.44-10.85C257.29,97.5,255.74,94.39,254.25,91.38Z"/><path class="cls-23" d="M253.85,90.56a19.36,19.36,0,0,1-1.47-3.67c-.44-1.68-.76-3.31-1.07-4.9-.79-4-1.41-7.13-3.45-8.1l-.1,0-.09,0h-.12a5.14,5.14,0,0,0-3.63,2.05c-3.1,3.41-6.28,11.23-7.56,18.61a.2.2,0,0,0,.07.19.23.23,0,0,0,.2,0l1.1-.38a.21.21,0,0,0,.14-.15c1.32-7,4.3-14.28,7.09-17.36a4.22,4.22,0,0,1,2.42-1.56c1.31.81,1.91,3.82,2.53,7,.3,1.52.64,3.25,1.1,5a20.28,20.28,0,0,0,1.44,3.68.22.22,0,0,0,.22.11l1-.2a.18.18,0,0,0,.14-.11A.2.2,0,0,0,253.85,90.56Z"/><path class="cls-24" d="M225.23,82.3a3.09,3.09,0,1,1,3.54,2.3,3,3,0,0,1-3.54-2.3"/></svg>