<?xml version="1.0" encoding="utf-8"?>
<!-- Generator: Adobe Illustrator 24.0.3, SVG Export Plug-In . SVG Version: 6.00 Build 0)  -->
<svg version="1.1" id="Layer_1" xmlns="http://www.w3.org/2000/svg" xmlns:xlink="http://www.w3.org/1999/xlink" x="0px" y="0px"
	 viewBox="0 0 300 300" style="enable-background:new 0 0 300 300;" xml:space="preserve">
<style type="text/css">
	.st0{fill:#85592E;}
	.st1{fill:#C6845B;}
	.st2{fill:#413326;}
	.st3{fill:#EAEA98;}
</style>
<g>
	<path class="st0" d="M191.16,192.63c0.09,0.91,0.51,1.68,1.2,2.25L207.23,207c0.69,0.57,1.49,0.78,2.34,0.64
		c0.85-0.14,1.58-0.57,2.12-1.28c0.54-0.74,0.73-1.58,0.6-2.49c-0.1-0.91-0.5-1.64-1.2-2.22l-14.86-12.12
		c-0.7-0.57-1.49-0.81-2.34-0.67c-0.86,0.13-1.55,0.57-2.09,1.31C191.26,190.88,191.04,191.72,191.16,192.63"/>
	<path class="st0" d="M261.12,122.12c0.47-0.77,0.63-1.62,0.47-2.52c-0.16-0.91-0.57-1.65-1.29-2.15c-0.73-0.54-1.52-0.71-2.37-0.54
		c-0.86,0.17-1.54,0.64-2.02,1.41l-6.71,10.44c-0.51,0.77-0.67,1.61-0.51,2.52c0.15,0.91,0.6,1.62,1.33,2.15
		c0.73,0.51,1.52,0.68,2.37,0.51c0.85-0.16,1.52-0.64,2.02-1.38L261.12,122.12z"/>
	<path class="st0" d="M278.67,163.86c-0.22-0.91-0.69-1.62-1.42-2.09l-12.71-8.45c-0.73-0.51-1.52-0.68-2.37-0.44
		c-0.85,0.2-1.52,0.71-1.96,1.48c-0.48,0.78-0.63,1.65-0.42,2.56c0.19,0.91,0.67,1.58,1.4,2.08l12.71,8.45
		c0.73,0.5,1.55,0.64,2.4,0.44c0.85-0.23,1.48-0.74,1.96-1.51C278.73,165.61,278.85,164.77,278.67,163.86"/>
	<path class="st0" d="M55.63,168.7c-0.63-0.68-1.39-1.01-2.25-1.01H41.8c-0.85,0-1.61,0.34-2.21,1.01
		c-0.63,0.64-0.95,1.45-0.95,2.36c0,0.91,0.31,1.72,0.95,2.39c0.6,0.64,1.36,0.98,2.21,0.98h11.58c0.85,0,1.61-0.34,2.25-0.98
		c0.6-0.67,0.91-1.48,0.91-2.39C56.54,170.15,56.23,169.34,55.63,168.7"/>
	<path class="st0" d="M23.37,137.77c-0.82,0.31-1.42,0.88-1.8,1.72c-0.38,0.84-0.41,1.68-0.13,2.56c0.29,0.88,0.82,1.52,1.61,1.92
		l11.92,6.06c0.79,0.4,1.58,0.47,2.4,0.16c0.82-0.3,1.42-0.91,1.8-1.75c0.38-0.84,0.44-1.68,0.16-2.56
		c-0.32-0.87-0.86-1.51-1.64-1.91l-11.93-6.06C24.98,137.5,24.19,137.47,23.37,137.77"/>
	<path class="st0" d="M57.96,191.31c0.03,0.91,0.38,1.72,1.04,2.36c0.63,0.64,1.4,0.91,2.25,0.88c0.85-0.03,1.61-0.41,2.21-1.08
		l8.95-10.29c0.59-0.71,0.85-1.51,0.82-2.42c-0.03-0.91-0.38-1.68-1.01-2.33c-0.66-0.64-1.42-0.94-2.28-0.91
		c-0.85,0.04-1.58,0.41-2.18,1.08l-8.95,10.3C58.22,189.6,57.93,190.41,57.96,191.31"/>
	<path class="st0" d="M174.84,101.12c-0.47,0.11-0.88,0.34-1.23,0.64c-3.95,3-10.88,4.48-20.81,4.48c-25.99,0-53.25,1.04-81.75,3.16
		c-0.66,0.03-1.27,0.3-1.81,0.81c-0.53,0.47-0.88,1.04-1.04,1.75c-0.16,0.7-0.13,1.38,0.16,2.09c0.25,0.68,0.66,1.22,1.24,1.58
		c0.57,0.37,1.07,0.74,1.52,1.08c-22.74,7.06-33.9,15.88-33.43,26.45c-0.34-0.47-1.42-0.3-3.25,0.51c-0.25,0.1-0.48,0.24-0.7,0.4
		c-1.96,1.58-4.52,3.34-7.66,5.32c-0.6,0.37-1.04,0.91-1.32,1.62c-0.29,0.67-0.32,1.38-0.16,2.12c0.16,0.71,0.54,1.32,1.08,1.78
		c12.21,10.5,27.74,20.8,46.55,30.93v0.03c4.61,2.46,6.67,6.56,6.17,12.32c-0.06,0.6,0.03,1.17,0.28,1.75
		c0.26,0.57,0.63,1.01,1.11,1.35c0.47,0.33,0.98,0.53,1.58,0.57c19.51,1.05,40.26,1.79,62.17,2.19c2.31,4.44,6.01,7.26,11.1,8.51
		c0.41,0.1,0.85,0.1,1.3,0.03c29.54-5.92,55.34-14.84,77.44-26.75c4.33-2.22,10.72-2.77,19.14-1.62c0.6,0.1,1.2,0,1.77-0.3
		c0.56-0.3,1.01-0.71,1.33-1.28c6.83-12.15,10.82-23.93,11.95-35.34c0.22-1.38,0.35-2.76,0.35-4.14c0.03-3.53,0.79-7.13,2.31-10.8
		c0.28-0.71,0.35-1.38,0.19-2.09c-0.16-0.7-0.51-1.31-1.02-1.81c-0.51-0.51-1.11-0.78-1.8-0.81c-10.21-1.01-19.07-2.19-26.56-3.57
		c-0.19-1.45-0.73-2.73-1.65-3.87c-1.23-1.75-3.41-3.09-6.58-4.04c-14.22-4.27-33.07-9.25-56.57-15.01
		C175.76,101.02,175.32,101.02,174.84,101.12 M148.44,199.43c-0.25-0.64-0.63-1.14-1.14-1.51c-0.54-0.37-1.11-0.57-1.7-0.57
		c-21.41-0.37-41.71-1.07-60.84-2.05c-0.28-7-3.51-12.15-9.68-15.44c-16.6-8.92-30.55-18.01-41.87-27.23
		c1.51-1.05,2.84-1.99,4.02-2.9c5.09-2.29,7.33-4.47,6.79-6.56c0.44-7.7,10.6-14.53,30.49-20.52v0.04c1.61-0.51,2.75-1.18,3.35-2.02
		c1.2-1.38,1.45-2.99,0.79-4.88c-0.03-0.03-0.03-0.1-0.03-0.13c25.77-1.78,50.5-2.66,74.19-2.66c10.79,0,18.6-1.65,23.4-4.92
		c22.74,5.59,41.02,10.47,54.9,14.61c1.55,0.43,2.69,1.04,3.38,1.78c0.22,0.44,0.29,0.94,0.13,1.55c-0.16,0.61-0.16,1.21,0,1.82
		c0.16,0.61,0.47,1.11,0.92,1.55c0.44,0.44,0.95,0.71,1.55,0.84c7.24,1.45,15.84,2.66,25.83,3.7c-0.88,3.13-1.33,6.19-1.33,9.25
		c0,0.98-0.1,1.99-0.26,3c-0.03,0.1-0.03,0.17-0.03,0.27c-1.04,9.99-4.4,20.29-10.09,30.89c-9.01-1.01-15.91-0.16-20.68,2.53
		c-21.47,11.54-46.49,20.23-75.11,25.98C152.11,204.84,149.77,202.69,148.44,199.43"/>
	<path class="st1" d="M147.3,197.91c0.51,0.37,0.89,0.88,1.14,1.51c1.33,3.27,3.67,5.42,6.99,6.4
		c28.62-5.75,53.63-14.44,75.11-25.98c4.77-2.69,11.67-3.53,20.68-2.53c5.7-10.6,9.05-20.9,10.1-30.89c0-0.11,0-0.17,0.03-0.27
		c0.16-1.01,0.26-2.02,0.26-3c0-3.06,0.44-6.12,1.33-9.25c-9.99-1.04-18.6-2.26-25.84-3.7c-0.6-0.14-1.11-0.41-1.55-0.84
		c-0.44-0.44-0.76-0.94-0.92-1.55c-0.16-0.6-0.16-1.21,0-1.81c0.16-0.61,0.1-1.12-0.13-1.55c-0.7-0.74-1.83-1.34-3.38-1.78
		c-13.88-4.14-32.16-9.02-54.9-14.61c-4.8,3.27-12.62,4.92-23.4,4.92c-23.68,0-48.42,0.87-74.19,2.65c0,0.04,0,0.1,0.03,0.14
		c0.66,1.89,0.41,3.5-0.79,4.88c-0.6,0.84-1.73,1.51-3.35,2.02v-0.04c-19.89,5.99-30.04,12.82-30.49,20.52
		c0.54,2.09-1.7,4.28-6.79,6.56c-1.17,0.91-2.5,1.85-4.02,2.9c11.32,9.22,25.26,18.31,41.87,27.23c6.17,3.29,9.4,8.45,9.68,15.45
		c19.13,0.97,39.43,1.68,60.84,2.05C146.19,197.34,146.76,197.54,147.3,197.91"/>
	<path class="st2" d="M137.85,107.52c-4.94-6.43-12.46-8.72-22.55-6.93c-9.39,1.65-17.46,5.52-24.17,11.64v0.04
		c-6.86,6.26-11.03,13.69-12.52,22.28c-1.58,8.95,0.13,16.49,5.12,22.58v-0.04c4.9,6.16,11.64,9.12,20.21,8.85
		c8.22-0.24,15.75-3.47,22.61-9.76h0.03c6.73-6.12,11.51-14.03,14.32-23.76C143.92,122.03,142.87,113.71,137.85,107.52
		 M133.01,111.86c3.45,4.65,4.07,10.84,1.86,18.57c-2.46,8.45-6.61,15.31-12.43,20.64v0.02c-5.66,5.19-11.89,7.88-18.69,8.12
		c-6.42,0.23-11.48-1.95-15.21-6.49c-3.64-4.61-4.87-10.23-3.7-16.93c1.26-7.1,4.74-13.23,10.4-18.44h0.03
		c5.85-5.32,12.87-8.68,21.06-10.14c7.4-1.31,12.94,0.21,16.64,4.62L133.01,111.86z"/>
	<path class="st3" d="M134.87,130.44c2.21-7.74,1.58-13.93-1.86-18.58l-0.04-0.03c-3.7-4.41-9.23-5.93-16.63-4.61
		c-8.19,1.45-15.21,4.82-21.06,10.14h-0.03c-5.66,5.21-9.14,11.34-10.4,18.44c-1.17,6.7,0.06,12.32,3.7,16.93
		c3.73,4.55,8.79,6.73,15.21,6.49c6.8-0.24,13.03-2.93,18.69-8.11v-0.03C128.26,145.75,132.41,138.88,134.87,130.44"/>
	<path class="st2" d="M166.31,123.31h0.03c-8.69-1.85-17.48-0.94-26.37,2.72c-9.52,3.94-15.02,9.93-16.48,17.97
		c-1.67,8.08,1.27,15.78,8.86,23.09c7.02,6.82,14.86,11.13,23.53,12.95c8.89,1.82,16.95,0.71,24.23-3.36
		c7.52-4.25,11.98-10.34,13.4-18.24c1.49-7.91-0.5-15.35-5.98-22.31C182.24,129.36,175.2,125.09,166.31,123.31 M165.1,129.9
		l0.04,0.04c7.3,1.45,13.15,4.94,17.52,10.5l0.03,0.03c4.11,5.21,5.66,10.77,4.62,16.69c-1.11,5.85-4.49,10.37-10.15,13.56
		c-6.04,3.33-12.71,4.24-20.05,2.73c-7.56-1.58-14.38-5.39-20.49-11.34h-0.03c-5.57-5.35-7.87-10.94-6.9-16.73
		c1.3-5.79,5.47-10.17,12.56-13.09C149.96,129.09,157.58,128.32,165.1,129.9"/>
	<path class="st3" d="M165.14,129.93l-0.04-0.04c-7.52-1.58-15.14-0.8-22.86,2.4c-7.09,2.93-11.26,7.3-12.56,13.09
		c-0.98,5.79,1.33,11.37,6.89,16.73h0.03c6.1,5.95,12.93,9.76,20.49,11.34c7.34,1.52,14.01,0.61,20.05-2.72
		c5.67-3.2,9.04-7.7,10.15-13.56c1.04-5.93-0.5-11.48-4.61-16.7l-0.03-0.03C178.29,134.88,172.44,131.38,165.14,129.93"/>
	<path class="st2" d="M175.29,161.43c7.43,5.42,15.28,7.78,23.47,7.1c8.5-0.71,14.89-4.41,19.17-11.11
		c4.3-6.63,5.22-14.34,2.78-23.05c-2.34-8.42-7.24-15.31-14.7-20.73c-7.31-5.35-15.72-8.21-25.31-8.58
		c-10.21-0.37-17.45,2.79-21.78,9.56l-0.04,0.06c-4.52,6.7-4.68,15.01-0.47,24.94v0.03C162.36,148.88,167.99,156.15,175.29,161.43
		 M164.16,136.86c-3.06-7.3-3.09-13.39-0.1-18.34c0-0.04,0-0.04,0.03-0.04c3.32-4.75,8.79-7,16.39-6.7
		c8.28,0.3,15.59,2.76,21.94,7.4c6.17,4.48,10.24,10.2,12.2,17.09c1.86,6.57,1.2,12.32-1.93,17.34c-3.23,4.95-8.04,7.67-14.42,8.21
		c-6.8,0.51-13.25-1.48-19.42-5.96C172.51,151.23,167.61,144.91,164.16,136.86"/>
	<path class="st3" d="M164.16,136.86c3.45,8.04,8.35,14.37,14.7,19.01c6.17,4.47,12.62,6.47,19.42,5.96
		c6.39-0.54,11.19-3.26,14.42-8.21c3.13-5.02,3.79-10.77,1.93-17.34c-1.96-6.89-6.04-12.62-12.2-17.09
		c-6.36-4.65-13.67-7.1-21.94-7.4c-7.59-0.31-13.07,1.95-16.39,6.7c-0.03,0-0.03,0-0.03,0.04
		C161.06,123.47,161.09,129.56,164.16,136.86"/>
	<path class="st0" d="M144.55,163.29c0.73,0.2,1.43,0.13,2.12-0.2c17.33-8.65,38.72-14.94,64.14-18.88
		c4.36-0.71,8.85-1.31,13.47-1.82c0.6-0.1,1.2-0.16,1.8-0.2c0.56-0.1,1.14-0.16,1.68-0.2c0.85-0.1,1.58-0.54,2.12-1.24
		c0.54-0.74,0.79-1.55,0.7-2.46c-0.09-0.95-0.51-1.72-1.17-2.29c-0.7-0.57-1.49-0.81-2.34-0.71c-1.17,0.14-2.31,0.27-3.48,0.41
		c-4.71,0.54-9.27,1.14-13.7,1.85c-25.61,4-47.24,10.3-64.89,18.95c-19.54-5.25-43.1-10.71-70.71-16.32
		c-3.51-0.71-7.09-1.45-10.72-2.16c-0.85-0.17-1.64,0-2.37,0.54c-0.73,0.51-1.17,1.25-1.33,2.15c-0.16,0.91,0,1.75,0.5,2.53
		c0.41,0.64,0.95,1.08,1.65,1.31c0.1,0.04,0.22,0.07,0.38,0.1c3.61,0.71,7.18,1.41,10.69,2.12
		C101.07,152.44,124.88,157.97,144.55,163.29"/>
	<path class="st1" d="M146.67,163.08c-0.69,0.34-1.39,0.4-2.12,0.2c-19.67-5.31-43.48-10.84-71.47-16.52
		c-3.51-0.71-7.08-1.42-10.69-2.12c-0.16-0.03-0.28-0.07-0.38-0.1c-3.19,11.85-1.55,21.58,4.96,29.15
		c30.52,22.69,68.24,29.15,113.25,19.38c49.23-5.42,64.51-22.38,45.85-50.89c-0.6,0.04-1.2,0.1-1.8,0.2
		c-4.62,0.51-9.1,1.11-13.47,1.82C185.38,148.14,164,154.44,146.67,163.08"/>
</g>
</svg>
