<?xml version="1.0" encoding="iso-8859-1"?>
<!-- Generator: Adobe Illustrator 19.0.0, SVG Export Plug-In . SVG Version: 6.00 Build 0)  -->
<svg version="1.1" xmlns="http://www.w3.org/2000/svg" xmlns:xlink="http://www.w3.org/1999/xlink" xml:space="preserve">
    <symbol id="prev-1" viewBox="0 0 488.869 488.869">
        <path d="M482.357,246.628c-16.3-10.3-36.1-14.8-56.2-16c-48.5-2.9-97-7.3-145.7-4c-6-0.4-12.1-0.8-18.1-1.1
			c-30.4-1.3-60.8-1.9-91.1,0c25.1-22.7,47.5-48.6,72.6-71.4c1.7-1.5,1.7-6.5,0.7-9c-1.9-5-6.8-5.9-12.1-5.1
			c-17.2,2.7-32.5,11.6-45.7,23c-25.5,22.2-51.7,43.7-75.3,68l-0.4,0.4l0,0c-7.2,7.4-7,19.2,0.4,26.4c5.9,5.7,11.9,11.2,18.1,16.6
			c3.4,3.9,6.8,7.9,10.3,11.8c22.2,24.5,45.2,48.3,71.3,68.6c7.4,5.8,16.2,8,22.1,1.1c5.4-6.3,5-15.3-1.1-22.8
			c-11-13.4-21.9-27-34.3-39.1c-12.5-12.1-25.4-23.8-38.3-35.4c16.2,1.4,32.4,2.6,48.6,2.4c32.2-0.4,64.4-2.4,96.6-3.7
			c57.7,11.5,116.8,4.9,175.2,7.3c2.6,0.1,6.7-3.4,8-5.8C490.557,253.928,487.257,249.728,482.357,246.628z" />
        <path d="M34.457,57.028c-4.9-2.7-9,0.8-12.1,6c-10.3,17-14.8,37.7-16,58.8c-2.9,50.7-7.3,101.3-4,152.3
			c-0.4,6.3-0.8,12.6-1.1,18.9c-1.7,40-2.2,80,1.9,119.8c1.2,11.3,5.8,20.7,14.8,19.9c8.3-0.8,14.4-8.8,15.3-20.4
			c1.7-20.9,3.6-41.9,3.4-62.8c-0.4-33.7-2.4-67.3-3.7-101c11.5-60.3,4.9-122.1,7.3-183.1
			C40.457,62.628,36.957,58.328,34.457,57.028z" />
    </symbol>
</svg>