<?xml version="1.0" encoding="iso-8859-1"?>
<!-- Generator: Adobe Illustrator 19.0.0, SVG Export Plug-In . SVG Version: 6.00 Build 0)  -->
<svg version="1.1" xmlns="http://www.w3.org/2000/svg" xmlns:xlink="http://www.w3.org/1999/xlink" xml:space="preserve">
    <symbol id="prev" viewBox="0 0 483.137 483.137">
        <path d="M150.925,287.192c7.9,8.4,15.7,16.8,23.6,25.1c50.4,52.7,101.6,104.6,155.8,153c15.4,13.8,30.8,22.6,36.1,15.1
			c4.9-6.8-1.2-21.5-15.5-37.2c-25.7-28.1-51.4-56.6-78.6-83.4c-41.9-41.4-84.9-81.7-127.4-122.4c79.4-67,150-145.5,225.4-217.8
			c3.6-3.4,6.6-11.4,6.6-14.9c0-6.9-7.4-5.3-16.3-0.9c-29.3,14.7-59.1,38.2-87.1,64.4c-54.3,51-109.2,101.2-161.7,154.5l-0.2,0.2
			c-7.3,7.4-7.2,19.3,0.2,26.6C124.725,262.292,137.725,274.892,150.925,287.192z" />
    </symbol>
</svg>